<?xml version="1.0" encoding="UTF-8"?>
<svg width="17px" height="13px" viewBox="0 0 17 13" version="1.1" xmlns="http://www.w3.org/2000/svg" xmlns:xlink="http://www.w3.org/1999/xlink">
    <!-- Generator: sketchtool 50.2 (55047) - http://www.bohemiancoding.com/sketch -->
    <title>6CAFCB64-7243-4F9A-9004-E84DFFC92887</title>
    <desc>Created with sketchtool.</desc>
    <defs></defs>
    <g id="Symbols" stroke="none" stroke-width="1" fill="none" fill-rule="evenodd">
        <g id="icons" transform="translate(-43.000000, -242.000000)" fill="#4DA1FF" fill-rule="nonzero">
            <g id="Group-2" transform="translate(43.000000, 206.000000)">
                <path d="M17,37.625 C17,36.73125 16.235,36 15.3,36 L1.7,36 C0.765,36 0,36.73125 0,37.625 L0,47.375 C0,48.26875 0.765,49 1.7,49 L15.3,49 C16.235,49 17,48.26875 17,47.375 L17,37.625 Z M15.3,37.625 L8.5,41.6875 L1.7,37.625 L15.3,37.625 Z M15.3,47.375 L1.7,47.375 L1.7,39.25 L8.5,43.3125 L15.3,39.25 L15.3,47.375 Z" id="XMLID_1_"></path>
            </g>
        </g>
    </g>
</svg>