<?xml version="1.0" encoding="UTF-8"?>
<svg width="13px" height="13px" viewBox="0 0 13 13" version="1.1" xmlns="http://www.w3.org/2000/svg" xmlns:xlink="http://www.w3.org/1999/xlink">
    <!-- Generator: sketchtool 50.2 (55047) - http://www.bohemiancoding.com/sketch -->
    <title>D01C55C3-5191-4203-B9B6-EEA2D347FC75</title>
    <desc>Created with sketchtool.</desc>
    <defs></defs>
    <g id="Admin-Panel" stroke="none" stroke-width="1" fill="none" fill-rule="evenodd">
        <g id="User-Profile-Review-" transform="translate(-945.000000, -1044.000000)" fill="#868686" fill-rule="nonzero">
            <g id="2nd-block" transform="translate(181.000000, 490.000000)">
                <g id="Group-14" transform="translate(764.000000, 551.000000)">
                    <g id="web_ic" transform="translate(0.000000, 2.000000)">
                        <g id="Group" transform="translate(0.000000, 0.637820)">
                            <path d="M6.49999992,0.362192272 C2.9155265,0.362192272 -2.00000002e-07,3.27772045 -2.00000002e-07,6.86219992 C-2.00000002e-07,10.4466779 2.9155265,13.3622 6.49999992,13.3622 C10.0844718,13.3622 13,10.4466779 13,6.86219992 C13,3.27772045 10.0844718,0.362192272 6.49999992,0.362192272 Z M6.04651154,1.34475042 L6.04651154,3.38072429 L4.47347373,3.38072429 C4.84183175,2.3426773 5.37905374,1.58245694 6.04651154,1.34475042 Z M6.95348829,1.34475042 C7.62094609,1.58245694 8.15816808,2.3426773 8.5265261,3.38072429 L6.95348829,3.38072429 L6.95348829,1.34475042 Z M4.40734,1.67541903 C4.07506605,2.14529648 3.79088755,2.72191149 3.56649697,3.38072429 L2.12100276,3.38072429 C2.71789928,2.63001812 3.5033215,2.03948706 4.40734,1.67541903 Z M8.59265983,1.67541903 C9.49667833,2.03948706 10.2821021,2.63001812 10.8789971,3.38072429 L9.43350286,3.38072429 C9.20911228,2.72191149 8.92493378,2.14529648 8.59265983,1.67541903 Z M1.53524694,4.28770104 L3.30668592,4.28770104 C3.15467813,4.94377024 3.06084987,5.65817164 3.03270336,6.40398014 L0.925871935,6.40398014 C0.987209262,5.64554653 1.20256938,4.92973477 1.53524694,4.28770104 Z M4.20893884,4.28770104 L6.04651154,4.28770104 L6.04651154,6.40398014 L3.93968011,6.40398014 C3.96692116,5.66146246 4.0581993,4.94073187 4.20893884,4.28770104 Z M6.95348829,4.28770104 L8.79106099,4.28770104 C8.94180053,4.94073187 9.03307867,5.66146246 9.06031972,6.40398014 L6.95348829,6.40398014 L6.95348829,4.28770104 Z M9.69331391,4.28770104 L11.4647529,4.28770104 C11.7974304,4.92973477 12.0127906,5.64554653 12.0741279,6.40398014 L9.96729647,6.40398014 C9.93914996,5.65817164 9.8453217,4.94377024 9.69331391,4.28770104 Z M0.925871935,7.3109569 L3.03270336,7.3109569 C3.06004266,8.05839644 3.15492603,8.77001041 3.30668592,9.427236 L1.53052311,9.427236 C1.19926647,8.78496041 0.98591682,8.06920458 0.925871935,7.3109569 Z M3.93968011,7.3109569 L6.04651154,7.3109569 L6.04651154,9.427236 L4.20893884,9.427236 C4.05842907,8.77378947 3.96660372,8.05374063 3.93968011,7.3109569 Z M6.95348829,7.3109569 L9.06031972,7.3109569 C9.03339611,8.05374063 8.94157076,8.77378947 8.79106099,9.427236 L6.95348829,9.427236 L6.95348829,7.3109569 Z M9.96729647,7.3109569 L12.0741279,7.3109569 C12.014083,8.06920458 11.8007334,8.78496041 11.4694767,9.427236 L9.69331391,9.427236 C9.8450738,8.77001041 9.93995717,8.05839644 9.96729647,7.3109569 Z M2.11627893,10.3342128 L3.56177313,10.3342128 C3.78666709,10.9964872 4.07340023,11.577436 4.40734,12.0489732 C3.50077441,11.6838697 2.71378614,11.0879256 2.11627893,10.3342128 Z M4.46874989,10.3342128 L6.04651154,10.3342128 L6.04651154,12.3749105 C5.3778792,12.1367837 4.83714571,11.3750744 4.46874989,10.3342128 Z M6.95348829,10.3342128 L8.53124994,10.3342128 C8.16285412,11.3750744 7.62212063,12.1367837 6.95348829,12.3749105 L6.95348829,10.3342128 Z M9.4382267,10.3342128 L10.8837209,10.3342128 C10.2862137,11.0879256 9.49922391,11.6838697 8.59265983,12.0489732 C8.9265996,11.577436 9.21333274,10.9964872 9.4382267,10.3342128 Z" id="Shape"></path>
                        </g>
                    </g>
                </g>
            </g>
        </g>
    </g>
</svg>