<?xml version="1.0" encoding="UTF-8"?>
<svg width="13px" height="12px" viewBox="0 0 13 12" version="1.1" xmlns="http://www.w3.org/2000/svg" xmlns:xlink="http://www.w3.org/1999/xlink">
    <!-- Generator: sketchtool 50.2 (55047) - http://www.bohemiancoding.com/sketch -->
    <title>F327E153-51C6-40E1-8C79-DC9BB7C9D77D</title>
    <desc>Created with sketchtool.</desc>
    <defs></defs>
    <g id="Admin-Panel" stroke="none" stroke-width="1" fill="none" fill-rule="evenodd">
        <g id="Admin-Reports" transform="translate(-296.000000, -588.000000)" fill="#999999" fill-rule="nonzero" stroke="#999999" stroke-width="0.6">
            <g id="Group-22" transform="translate(180.000000, 425.000000)">
                <g id="Group-20" transform="translate(0.000000, 49.000000)">
                    <g id="Group-10" transform="translate(117.000000, 104.000000)">
                        <g id="Group-4">
                            <path d="M10.1404447,12.8082415 L8.26531096,12.8082415 L8.26531096,11.8428047 C8.26531096,11.3780381 7.87965273,11 7.40551788,11 L3.59460101,11 C3.12058508,11 2.73492686,11.3780381 2.73492686,11.8428047 L2.73492686,12.8082415 L0.859674156,12.8082415 C0.385658222,12.8082415 0,13.1862797 0,13.6509296 L0,20.1571953 C0,20.6219619 0.385658222,21 0.859674156,21 L10.1403258,21 C10.6143418,21 11,20.6219619 11,20.1571953 L11,13.6510462 C11.0001189,13.1862797 10.6144607,12.8082415 10.1404447,12.8082415 Z M3.32940896,11.8428047 C3.32940896,11.6995395 3.44832916,11.5828525 3.59448209,11.5828525 L7.40539896,11.5828525 C7.55155189,11.5828525 7.67059101,11.6995395 7.67059101,11.8428047 L7.67059101,12.8082415 L3.32940896,12.8082415 L3.32940896,11.8428047 Z M0.859674156,13.391094 L10.1403258,13.391094 C10.2864787,13.391094 10.405399,13.5076645 10.405399,13.6509296 L10.405399,15.6524451 L5.52931382,16.8076587 L0.594601021,15.6519788 L0.594601021,13.6510462 C0.594601021,13.5076645 0.713521225,13.391094 0.859674156,13.391094 Z M10.1404447,20.4173807 L0.859674156,20.4173807 C0.713521225,20.4173807 0.594601021,20.3006936 0.594601021,20.1574285 L0.594601021,16.2511511 L5.46069686,17.3908609 C5.48341062,17.3963397 5.50660006,17.3989042 5.5297895,17.3989042 C5.55321678,17.3989042 5.57676298,17.3962231 5.59959566,17.3907443 L10.4055179,16.2520837 L10.4055179,20.1573119 C10.4055179,20.3006936 10.2865977,20.4173807 10.1404447,20.4173807 Z" id="bag_icon"></path>
                        </g>
                    </g>
                </g>
            </g>
        </g>
    </g>
</svg>