<?xml version="1.0" encoding="UTF-8"?>
<svg width="126px" height="13px" viewBox="0 0 126 13" version="1.1" xmlns="http://www.w3.org/2000/svg" xmlns:xlink="http://www.w3.org/1999/xlink">
    <!-- Generator: Sketch 50.2 (55047) - http://www.bohemiancoding.com/sketch -->
    <title>Gocardless-blue</title>
    <desc>Created with Sketch.</desc>
    <defs></defs>
    <g id="Page-1" stroke="none" stroke-width="1" fill="none" fill-rule="evenodd">
        <g id="Gocardless-blue" fill="#0854B3" fill-rule="nonzero">
            <path d="M6.63025209,13 C2.697479,13 0,10.2591876 0,6.5377176 L0,6.51257252 C0,2.94197292 2.79831933,0 6.60504203,0 C8.87394961,0 10.2352941,0.603481623 11.5462185,1.73500967 L9.80672271,3.84719536 C8.82352943,3.04255319 7.96638657,2.5647969 6.50420167,2.5647969 C4.48739496,2.5647969 2.87394958,4.35009671 2.87394958,6.48742748 L2.87394958,6.51257252 C2.89915967,8.80077369 4.48739496,10.4854933 6.70588238,10.4854933 C7.71428573,10.4854933 8.62184877,10.2340425 9.3277311,9.73114123 L9.3277311,7.94584137 L6.52941179,7.94584137 L6.52941179,5.55705995 L12,5.55705995 L12,11.0135397 C10.7142857,12.0947776 8.92436973,13 6.63025209,13" id="Shape"></path>
            <path d="M20.4877589,13 C16.7175141,13 14,10.1083172 14,6.5377176 L14,6.51257252 C14,2.94197292 16.7419962,0 20.5122411,0 C24.2824859,0 27,2.89168279 27,6.4622824 L27,6.48742748 C27,10.0831721 24.2580038,13 20.4877589,13 Z M24.1845574,6.48742748 C24.1845574,4.32495164 22.6421845,2.53965184 20.4877589,2.53965184 C18.3088512,2.53965184 16.8154426,4.29980658 16.8154426,6.4622824 L16.8154426,6.48742748 C16.8154426,8.64990328 18.3578154,10.4352031 20.5122411,10.4352031 C22.6911488,10.4352031 24.1845574,8.67504836 24.1845574,6.51257252 L24.1845574,6.48742748 Z" id="Shape"></path>
            <path d="M35.1355555,13 C31.6155556,13 29,10.1334623 29,6.51257252 C29,2.91682785 31.5911111,0 35.1844444,0 C37.4088889,0 38.7288889,0.804642166 39.9511111,1.98646035 L38.9977778,3.01740812 C37.9711111,2.01160542 36.8222222,1.28239846 35.16,1.28239846 C32.4466667,1.28239846 30.4177778,3.52030948 30.4177778,6.4622824 C30.4177778,9.37911027 32.4711111,11.6673114 35.16,11.6673114 C36.8466666,11.6673114 37.9466667,11.0135397 39.0955555,9.85686655 L40,10.762089 C38.7533333,12.1199226 37.36,13 35.1355555,13" id="Shape"></path>
            <path d="M54,12 L52.561886,12 L51.1709234,8.85714288 L44.7583497,8.85714288 L43.367387,12 L42,12 L47.3752456,0 L48.6247544,0 L54,12 Z M47.9882121,1.57142857 L45.3005894,7.64285714 L50.675835,7.64285714 L47.9882121,1.57142857 Z" id="Shape"></path>
            <path d="M64.3091786,12 L60.8067633,7.344 L57.3526571,7.344 L57.3526571,12 L56,12 L56,0 L61.1932367,0 C63.8502413,0 65.5652175,1.416 65.5652175,3.576 C65.5652175,5.59200001 64.1884056,6.74399998 62.2801929,7.08000003 L66,11.976 L64.3091786,11.976 L64.3091786,12 Z M61.0966185,1.248 L57.3768114,1.248 L57.3768114,6.12000002 L61.0966185,6.12000002 C62.9082124,6.12000002 64.2125604,5.184 64.2125604,3.624 C64.1884056,2.136 63.0289854,1.248 61.0966185,1.248 Z" id="Shape"></path>
            <path d="M74.3500002,12 L70,12 L70,0 L74.3500002,0 C78.2749998,0 81,2.592 81,5.97599999 C80.9749998,9.36000002 78.2749998,12 74.3500002,12 M74.3500002,1.248 L71.425,1.248 L71.425,10.752 L74.3500002,10.752 C77.4999998,10.752 79.5250001,8.68799998 79.5250001,6.02400001 C79.5250001,3.336 77.4999998,1.248 74.3500002,1.248" id="Shape"></path>
            <polygon id="Shape" points="84 0 85.4911245 0 85.4911245 10.7305389 93 10.7305389 93 12 84 12"></polygon>
            <polygon id="Shape" points="102.926027 1.24550898 95.4054794 1.24550898 95.4054794 5.34131737 102.112328 5.34131737 102.112328 6.56287427 95.4054794 6.56287427 95.4054794 10.754491 103 10.754491 103 12 94 12 94 0 102.926027 0"></polygon>
            <path d="M110.653333,5.81712062 C113.613333,6.42412453 115,7.46108951 115,9.40856031 C115,11.5836576 113.106666,13 110.44,13 C108.333334,13 106.6,12.3424124 105,10.9766537 L105.933333,9.93968874 C107.32,11.1284047 108.653333,11.7354085 110.493334,11.7354085 C112.28,11.7354085 113.453333,10.8501946 113.453333,9.56031126 C113.453333,8.37159532 112.786667,7.68871594 109.986667,7.13229573 C106.92,6.5 105.506667,5.56420231 105.506667,3.46498055 C105.506667,1.44163424 107.346666,0 109.88,0 C111.826667,0 113.213334,0.531128405 114.573333,1.54280156 L113.693333,2.65564203 C112.466666,1.69455253 111.213334,1.28988327 109.853333,1.28988327 C108.12,1.28988327 107.026667,2.20038911 107.026667,3.3385214 C107.026667,4.55252918 107.693333,5.23540856 110.653333,5.81712062" id="Shape"></path>
            <path d="M121.653333,5.81712062 C124.613334,6.42412453 126,7.46108951 126,9.40856031 C126,11.5836576 124.106667,13 121.44,13 C119.333333,13 117.6,12.3424124 116,10.9766537 L116.933333,9.93968874 C118.32,11.1284047 119.653333,11.7354085 121.493333,11.7354085 C123.28,11.7354085 124.453333,10.8501946 124.453333,9.56031126 C124.453333,8.37159532 123.786667,7.68871594 120.986666,7.13229573 C117.92,6.5 116.506666,5.56420231 116.506666,3.46498055 C116.506666,1.44163424 118.346667,0 120.88,0 C122.826667,0 124.213334,0.531128405 125.573334,1.54280156 L124.693334,2.65564203 C123.466667,1.69455253 122.213333,1.28988327 120.853333,1.28988327 C119.12,1.28988327 118.026666,2.20038911 118.026666,3.3385214 C118.026666,4.55252918 118.72,5.23540856 121.653333,5.81712062" id="Shape"></path>
        </g>
    </g>
</svg>