<svg
    width="13px"
    height="12px"
    viewBox="0 0 13 12"
    version="1.1"
    xmlns="http://www.w3.org/2000/svg">
  <desc></desc>
  <defs></defs>
  <g id="Dashboard" stroke="none" stroke-width="1" fill="none" fill-rule="evenodd">
    <g id="Empty-messages-Dashboard"
        transform="translate(-1130.000000, -162.000000)"
        fill="#1B2733"
        fill-rule="nonzero"
        stroke="#1B2733"
        stroke-width="0.6">
      <g id="Profile-Menu" transform="translate(1102.000000, 63.000000)">
        <g id="Group-25" transform="translate(29.000000, 20.000000)">
          <g id="Group-24" transform="translate(0.000000, 77.000000)">
            <g id="Group-20">
              <g id="Group-17" transform="translate(0.000000, 3.000000)">
                <path d="M10.1404447,1.80824153 L8.26531096,1.80824153 L8.26531096,0.842804686 C8.26531096,0.378038119 7.87965273,0 7.40551788,0 L3.59460101,0 C3.12058508,0 2.73492686,0.378038119 2.73492686,0.842804686 L2.73492686,1.80824153 L0.859674156,1.80824153 C0.385658222,1.80824153 0,2.18627965 0,2.65092965 L0,9.15719531 C0,9.62196188 0.385658222,10 0.859674156,10 L10.1403258,10 C10.6143418,10 11,9.62196188 11,9.15719531 L11,2.65104622 C11.0001189,2.18627965 10.6144607,1.80824153 10.1404447,1.80824153 Z M3.32940896,0.842804686 C3.32940896,0.699539547 3.44832916,0.58285248 3.59448209,0.58285248 L7.40539896,0.58285248 C7.55155189,0.58285248 7.67059101,0.699539547 7.67059101,0.842804686 L7.67059101,1.80824153 L3.32940896,1.80824153 L3.32940896,0.842804686 Z M0.859674156,2.39109401 L10.1403258,2.39109401 C10.2864787,2.39109401 10.405399,2.50766451 10.405399,2.65092965 L10.405399,4.65244507 L5.52931382,5.80765868 L0.594601021,4.65197878 L0.594601021,2.65104622 C0.594601021,2.50766451 0.713521225,2.39109401 0.859674156,2.39109401 Z M10.1404447,9.41738066 L0.859674156,9.41738066 C0.713521225,9.41738066 0.594601021,9.30069359 0.594601021,9.15742845 L0.594601021,5.25115113 L5.46069686,6.39086087 C5.48341062,6.39633969 5.50660006,6.39890424 5.5297895,6.39890424 C5.55321678,6.39890424 5.57676298,6.39622312 5.59959566,6.3907443 L10.4055179,5.2520837 L10.4055179,9.15731188 C10.4055179,9.30069359 10.2865977,9.41738066 10.1404447,9.41738066 Z"
                    id="Shape"></path>
              </g>
            </g>
          </g>
        </g>
      </g>
    </g>
  </g>
</svg>