<?xml version="1.0" encoding="UTF-8"?>
<svg width="13px" height="13px" viewBox="0 0 13 13" version="1.1" xmlns="http://www.w3.org/2000/svg" xmlns:xlink="http://www.w3.org/1999/xlink">
    <!-- Generator: sketchtool 50.2 (55047) - http://www.bohemiancoding.com/sketch -->
    <title>59F21890-736A-4986-80B1-FCD22876C869</title>
    <desc>Created with sketchtool.</desc>
    <defs></defs>
    <g id="Dashboard" stroke="none" stroke-width="1" fill="none" fill-rule="evenodd">
        <g transform="translate(-1071.000000, -620.000000)" fill-rule="nonzero" id="Group-14">
            <g transform="translate(69.000000, 122.000000)">
                <g id="Group-11-Copy" transform="translate(639.000000, 361.000000)">
                    <g id="Group-4" transform="translate(119.000000, 86.000000)">
                        <g id="Group-12" transform="translate(223.333333, 0.000000)">
                            <g id="card-1-copy">
                                <g id="BG">
                                    <g id="noun_User-Directory_598329" transform="translate(20.666667, 51.000000)">
                                        <g id="Group">
                                            <path d="M6.41963636,7.09090909 C4.46431818,7.09090909 2.87418182,5.50077273 2.87418182,3.54545455 C2.87418182,1.59013636 4.46431818,0 6.41963636,0 C8.37495455,0 9.96509091,1.59013636 9.96509091,3.54545455 C9.96509091,5.50077273 8.37436364,7.09090909 6.41963636,7.09090909 Z M6.41963636,1.18181818 C5.11609091,1.18181818 4.056,2.24190909 4.056,3.54545455 C4.056,4.849 5.11609091,5.90909091 6.41963636,5.90909091 C7.72318182,5.90909091 8.78327273,4.849 8.78327273,3.54545455 C8.78327273,2.24190909 7.72259091,1.18181818 6.41963636,1.18181818 Z" id="Shape" fill="#000000"></path>
                                            <path d="M6.41963636,7.09090909 C4.46431818,7.09090909 2.87418182,5.50077273 2.87418182,3.54545455 C2.87418182,1.59013636 4.46431818,0 6.41963636,0 C8.37495455,0 9.96509091,1.59013636 9.96509091,3.54545455 C9.96509091,5.50077273 8.37436364,7.09090909 6.41963636,7.09090909 Z M6.41963636,1.18181818 C5.11609091,1.18181818 4.056,2.24190909 4.056,3.54545455 C4.056,4.849 5.11609091,5.90909091 6.41963636,5.90909091 C7.72318182,5.90909091 8.78327273,4.849 8.78327273,3.54545455 C8.78327273,2.24190909 7.72259091,1.18181818 6.41963636,1.18181818 Z" id="Shape" fill="#999999"></path>
                                            <path d="M11.3614091,13 L1.47786364,13 C1.04,13 0.628136364,12.8073636 0.347454545,12.4705455 C0.0620454545,12.1278182 -0.0555454545,11.6787273 0.0248181818,11.2373182 C0.586772727,8.15040909 3.276,5.90909091 6.41963636,5.90909091 C9.56268182,5.90909091 12.2519091,8.15040909 12.8138636,11.2385 C12.8948182,11.6799091 12.7772273,12.129 12.4912273,12.4717273 C12.2105455,12.8073636 11.7986818,13 11.3614091,13 Z M6.41963636,7.09090909 C3.84740909,7.09090909 1.64745455,8.9245 1.18772727,11.4494545 C1.17,11.5451818 1.19481818,11.6415 1.25509091,11.7135909 C1.28759091,11.7531818 1.35968182,11.8181818 1.47786364,11.8181818 L11.3614091,11.8181818 C11.4730909,11.8181818 11.5445909,11.7614545 11.5835909,11.7135909 C11.6444545,11.6415 11.6692727,11.5451818 11.6515455,11.4494545 C11.1912273,8.9245 8.99127273,7.09090909 6.41963636,7.09090909 Z" id="Shape" fill="#999999"></path>
                                        </g>
                                    </g>
                                </g>
                            </g>
                        </g>
                    </g>
                </g>
            </g>
        </g>
    </g>
</svg>