<?xml version="1.0" encoding="UTF-8"?>
<svg width="90px" height="127px" viewBox="0 0 90 127" version="1.1" xmlns="http://www.w3.org/2000/svg" xmlns:xlink="http://www.w3.org/1999/xlink">
    <!-- Generator: Sketch 50.2 (55047) - http://www.bohemiancoding.com/sketch -->
    <title>Group 3</title>
    <desc>Created with Sketch.</desc>
    <defs></defs>
    <g id="Page-1" stroke="none" stroke-width="1" fill="none" fill-rule="evenodd">
        <g id="Group-3">
            <g id="Group-2">
                <rect id="Rectangle" fill="#242424" x="0" y="0" width="90" height="62" rx="8"></rect>
                <g id="MasterCard_Logo" transform="translate(6.000000, 7.000000)" fill-rule="nonzero">
                    <g id="g10305">
                        <path d="M78.7433826,23.5 C78.747094,36.3491173 68.2332013,46.7673631 55.2602349,46.7707765 C42.2870034,46.7739274 31.768604,36.360933 31.7651577,23.5118156 C31.7651577,23.5076145 31.7651577,23.5042011 31.7651577,23.5 C31.7617114,10.6511453 42.275604,0.232374302 55.2480403,0.228960894 C68.2212718,0.225547486 78.7399362,10.639067 78.7433826,23.4881844 C78.7433826,23.4921229 78.7433826,23.4957989 78.7433826,23.5 Z" id="path2268" fill="#FF9900"></path>
                        <path d="M23.5942248,0.235 C10.6981376,0.316134078 0.256352349,10.7078603 0.256352349,23.5 C0.256352349,36.3420279 10.7795235,46.7647374 23.7455973,46.7647374 C29.8309832,46.7647374 35.3779497,44.4677765 39.5519597,40.7030503 C39.5516946,40.7030503 39.5511644,40.7025251 39.550104,40.702 L39.5551409,40.702 C40.4098255,39.9305698 41.2069832,39.0982235 41.9397215,38.2107374 L37.127349,38.2107374 C36.484745,37.441933 35.9007282,36.6408324 35.376094,35.8142626 L43.6758658,35.8142626 C44.1806174,35.0142123 44.637651,34.1834413 45.043255,33.323 L34.0057886,33.323 C33.6296107,32.5242626 33.3030067,31.7074078 33.0241208,30.8787374 L46.0259832,30.8787374 C46.8096208,28.5597207 47.2348423,26.0786983 47.2348423,23.4997374 C47.2348423,21.7898827 47.0476812,20.1228268 46.6935067,18.5177374 L32.334594,18.5177374 C32.5124765,17.6916927 32.7370168,16.8756257 33.0047685,16.0737374 L46.0114027,16.0737374 C45.7205872,15.2203855 45.382849,14.3888268 44.9987181,13.5827374 L34.0044631,13.5827374 C34.4010537,12.7435642 34.8503993,11.9272346 35.3522349,11.139 L43.6459094,11.139 C43.0939698,10.2680559 42.4831779,9.43597207 41.8228121,8.64773743 L37.1986611,8.64773743 C37.9136376,7.81434078 38.7007215,7.02951955 39.5551409,6.29773743 C35.3808658,2.53248603 29.8323087,0.235 23.7455973,0.235 C23.6949631,0.235 23.6448591,0.23473743 23.5942248,0.235 Z" id="path1350" fill="#CC0000"></path>
                        <path d="M76.3869027,35.6622346 C76.5146812,35.6622346 76.6390134,35.6950559 76.7604295,35.759648 C76.8823758,35.8242402 76.9762215,35.9174525 77.0440872,36.0384972 C77.111953,36.1582291 77.1458859,36.2845251 77.1458859,36.4152849 C77.1458859,36.5444693 77.1122181,36.6694525 77.0454128,36.7891844 C76.9788725,36.9086536 76.8850268,37.0018659 76.7641409,37.0682961 C76.6445805,37.133676 76.5181275,37.1667598 76.3866376,37.1667598 C76.2551477,37.1667598 76.1289597,37.133676 76.008604,37.0682961 C75.8879832,37.0016034 75.7946678,36.9089162 75.726802,36.7891844 C75.6599966,36.6694525 75.6268591,36.5444693 75.6268591,36.4152849 C75.6268591,36.2845251 75.6605268,36.1582291 75.7286577,36.0384972 C75.7970537,35.9174525 75.8914295,35.8250279 76.0125805,35.759648 C76.135057,35.6950559 76.2593893,35.6622346 76.3869027,35.6622346 M76.3869027,35.7869553 C76.2805973,35.7869553 76.1766779,35.8142626 76.0751443,35.8686145 C75.974406,35.9229665 75.8956711,35.9998994 75.8389396,36.1017765 C75.7814128,36.2020782 75.7527819,36.3060559 75.7527819,36.4152849 C75.7527819,36.5234637 75.7808826,36.6279665 75.8362886,36.7272179 C75.8930201,36.8262067 75.9714899,36.9039274 76.071698,36.9595922 C76.1727013,37.0149944 76.2774161,37.0423017 76.3866376,37.0423017 C76.4963893,37.0423017 76.6013691,37.0149944 76.7018423,36.9595922 C76.8020503,36.9039274 76.880255,36.8262067 76.9361913,36.7272179 C76.9915973,36.6279665 77.0191678,36.5237263 77.0191678,36.4152849 C77.0191678,36.3060559 76.9910671,36.2018156 76.9340705,36.1017765 C76.877604,35.9998994 76.798604,35.9229665 76.6970705,35.8686145 C76.5965973,35.814 76.4932081,35.7869553 76.3869027,35.7869553 M76.0539362,36.8306704 L76.0539362,36.0214302 L76.3354732,36.0214302 C76.4309094,36.0214302 76.5003658,36.0287821 76.5433121,36.0445363 C76.5862584,36.0595028 76.6204564,36.0849721 76.6461711,36.1225196 C76.6713557,36.1595419 76.6843456,36.1989274 76.6843456,36.2409385 C76.6843456,36.3002793 76.6631376,36.351743 76.6201913,36.3953296 C76.5783054,36.4389162 76.5213087,36.4638603 76.4507919,36.4691117 C76.4796879,36.4809274 76.5027517,36.4958939 76.5207785,36.5121732 C76.5539161,36.5436816 76.5936812,36.5969832 76.6413993,36.6723408 L76.7408121,36.8306704 L76.5801611,36.8306704 L76.5080537,36.703324 C76.451057,36.6030223 76.4051946,36.5405307 76.3699362,36.5147989 C76.3458121,36.4966816 76.3105537,36.4872291 76.2646913,36.4872291 L76.1870168,36.4872291 L76.1870168,36.8314581 L76.0544664,36.8314581 M76.1859564,36.3751117 L76.3460772,36.3751117 C76.4224262,36.3751117 76.4741208,36.3635587 76.5019564,36.3412402 C76.530057,36.3181341 76.5441074,36.2887263 76.5441074,36.2514413 C76.5441074,36.2272849 76.537745,36.2057542 76.5242248,36.1873743 C76.5104396,36.1682067 76.4918826,36.1545531 76.4677584,36.144838 C76.4441644,36.135648 76.4001577,36.1303966 76.3360034,36.1303966 L76.1864866,36.1303966 L76.1864866,36.3751117" id="use9412" fill="#FCB340"></path>
                    </g>
                    <g id="g16480" transform="translate(2.000000, 18.000000)">
                        <g id="g13802" transform="translate(0.068126, 0.508249)" fill="#000066">
                            <path d="M30.0024774,11.9615294 L30.3165586,9.91721569 C30.1448786,9.91721569 29.892549,9.98833333 29.669498,9.98833333 C28.795394,9.98833333 28.6862641,9.54098039 28.7549361,9.21419608 L29.6162639,5.10262745 L30.9449873,5.10262745 L31.2188768,2.7822549 L29.9665444,2.7822549 L30.2215358,1.37621569 L27.6018853,1.37621569 C27.5465218,1.42923529 26.1198477,9.28378431 26.1198477,10.2406863 C26.1198477,11.6566667 26.9497674,12.2867843 28.1203855,12.2768431 C29.0365445,12.269451 29.7506801,12.0265294 30.0024774,11.9615294 Z" id="path13804"></path>
                            <path d="M30.7975288,8.06458824 C30.7975288,11.4629412 33.1395634,12.2702157 35.1353101,12.2702157 C36.9774765,12.2702157 37.9434094,11.8613529 37.9434094,11.8613529 L38.3857848,9.5417451 C38.3857848,9.5417451 36.8292195,10.147902 35.5641109,10.147902 C32.8675371,10.147902 33.340256,8.22237255 33.340256,8.22237255 L38.5207333,8.23741176 C38.5207333,8.23741176 38.8505186,6.67970588 38.8505186,6.0447451 C38.8505186,4.46001961 37.9489989,2.51460784 35.1920045,2.51460784 C32.6671107,2.51511765 30.7975288,5.12047059 30.7975288,8.06458824 Z M35.2015866,4.66801961 C36.6186786,4.66801961 36.3572991,6.19335294 36.3572991,6.31698039 L33.5694288,6.31698039 C33.5694288,6.15894118 33.8326715,4.66801961 35.2015866,4.66801961 Z" id="path13806"></path>
                            <path d="M51.1020825,11.9607647 L51.5516445,9.33935294 C51.5516445,9.33935294 50.3187426,9.93098039 49.4736511,9.93098039 C47.6921717,9.93098039 46.9775038,8.62843137 46.9775038,7.22876471 C46.9775038,4.38992157 48.5101137,2.82788235 50.2162669,2.82788235 C51.4960149,2.82788235 52.5226347,3.51586275 52.5226347,3.51586275 L52.9325373,0.968627451 C52.9325373,0.968627451 51.7203967,0.130254902 50.4156287,0.125411765 C46.490944,0.110627451 44.2452631,2.72745098 44.2452631,7.25119608 C44.2452631,10.2496078 45.9082967,12.290098 48.9048447,12.290098 C49.7520655,12.290098 51.1020825,11.9607647 51.1020825,11.9607647 Z" id="path13808"></path>
                            <path d="M16.1911541,2.55207843 C14.4692969,2.55207843 13.1496233,3.08201961 13.1496233,3.08201961 L12.7849697,5.15360784 C12.7849697,5.15360784 13.8744057,4.72970588 15.521469,4.72970588 C16.4565261,4.72970588 17.1405844,4.83039216 17.1405844,5.55813725 C17.1405844,6.00013725 17.0570069,6.16327451 17.0570069,6.16327451 C17.0570069,6.16327451 16.3191821,6.10439216 15.9774192,6.10439216 C13.5259885,6.10439216 11.5246522,6.99196078 11.5246522,9.66792157 C11.5246522,11.7767255 13.0213291,12.2602745 13.9489335,12.2602745 C15.7208308,12.2602745 16.4221901,11.1889216 16.4626481,11.1858627 L16.4421529,12.0749608 C16.4421529,12.0749608 18.6529655,12.0749608 18.6532316,12.0749608 L19.6396597,5.45260784 C19.6396597,2.64231373 17.0801637,2.55207843 16.1911541,2.55207843 Z M16.5739073,7.9294902 C16.6220842,8.33376471 16.4647774,10.2455294 14.9523964,10.2455294 C14.1725167,10.2455294 13.9699609,9.67454902 13.9699609,9.33756863 C13.9699609,8.67890196 14.3433982,7.88896078 16.183169,7.88896078 C16.6117036,7.88896078 16.5017751,7.91852941 16.5739073,7.9294902 Z" id="path13810"></path>
                            <path d="M21.9896794,12.2113333 C22.5552918,12.2113333 25.7884654,12.3492353 25.7884654,9.15403922 C25.7884654,6.16633333 22.7956438,6.75694118 22.7956438,5.55635294 C22.7956438,4.95937255 23.2835344,4.7712549 24.1754719,4.7712549 C24.5292125,4.7712549 25.8914734,4.87907843 25.8914734,4.87907843 L26.2079501,2.7557451 C26.2079501,2.756 25.3263933,2.56686275 23.8912017,2.56686275 C22.0335975,2.56686275 20.1480454,3.27701961 20.1480454,5.7067451 C20.1480454,8.46019608 23.2920518,8.18362745 23.2920518,9.34343137 C23.2920518,10.1175686 22.4136891,10.1812941 21.7365512,10.1812941 C20.5651346,10.1812941 19.5105669,9.79613725 19.5068406,9.8147451 L19.1717318,11.9164118 C19.2326849,11.9342549 19.8834719,12.2113333 21.9896794,12.2113333 Z" id="path13812"></path>
                            <path d="M71.8146756,0.625784314 L71.3608548,3.86533333 C71.3608548,3.86533333 70.4151509,2.61503922 68.9355088,2.61503922 C66.1516311,2.61503922 64.7169719,5.27188235 64.7169719,8.32382353 C64.7169719,10.2942157 65.7401315,12.2256078 67.8309011,12.2256078 C69.3350308,12.2256078 70.1689431,11.2210392 70.1689431,11.2210392 L70.0584824,12.0787843 L72.5013956,12.0787843 L74.4196867,0.643372549 L71.8146756,0.625784314 Z M70.7361526,6.92211765 C70.7361526,8.19229412 70.0792437,9.88917647 68.7183137,9.88917647 C67.8143985,9.88917647 67.390655,9.16245098 67.390655,8.02227451 C67.390655,6.15766667 68.2650252,4.92776471 69.3688345,4.92776471 C70.2722173,4.92776471 70.7361526,5.52168627 70.7361526,6.92211765 Z" id="path13814"></path>
                            <polygon id="path13816" points="2.59489662 12.0882157 4.12351405 3.45468627 4.34816198 12.0882157 6.07800434 12.0882157 9.30532217 3.45468627 7.87572019 12.0882157 10.4463953 12.0882157 12.4259056 0.637509804 8.34231715 0.607686275 5.91324478 7.6185098 5.84670214 0.637509804 2.10434431 0.637509804 0.0963537364 12.0882157"></polygon>
                            <path d="M41.2833173,12.1045294 C42.0142216,8.12423529 42.2745364,4.98078431 44.4060301,5.63180392 C44.7121263,4.09117647 45.4416997,2.75141176 45.7749452,2.09937255 C45.7749452,2.09937255 45.6695417,1.94923529 45.0107696,1.94923529 C43.8861991,1.94923529 42.384731,4.13476471 42.384731,4.13476471 L42.6091128,2.78352941 L40.2705384,2.78352941 L38.7043909,12.1042745 L41.2833173,12.1042745 L41.2833173,12.1045294 Z" id="path13818"></path>
                            <g id="use14699" transform="translate(51.450793, 2.549020)">
                                <path d="M4.91084651,0.00305882353 C3.18819076,0.00305882353 1.86851721,0.533 1.86851721,0.533 L1.50412974,2.60458824 C1.50412974,2.60458824 2.59409811,2.18068627 4.24036291,2.18068627 C5.1756862,2.18068627 5.85947833,2.28137255 5.85947833,3.00911765 C5.85947833,3.45111765 5.77616695,3.6142549 5.77616695,3.6142549 C5.77616695,3.6142549 5.03860837,3.55537255 4.6968454,3.55537255 C2.24514853,3.55537255 0.244078388,4.44294118 0.244078388,7.11890196 C0.244078388,9.22770588 1.74048918,9.7112549 2.66809352,9.7112549 C4.43945848,9.7112549 5.1413502,8.63990196 5.18154195,8.63684314 L5.16078065,9.52594118 L7.37239169,9.52594118 L8.35855355,2.90358824 C8.35881972,0.0932941176 5.79932378,0.00305882353 4.91084651,0.00305882353 Z M5.29306741,5.38047059 C5.34097811,5.7847451 5.18367132,7.6965098 3.67155647,7.6965098 C2.89114443,7.6965098 2.68885482,7.12552941 2.68885482,6.78854902 C2.68885482,6.12988235 3.06202592,5.33994118 4.90206288,5.33994118 C5.33086363,5.33994118 5.22120136,5.3695098 5.29306741,5.38047059 Z" id="path13810_1_"></path>
                            </g>
                            <path d="M62.3547083,12.1045294 C62.7560935,9.17621569 63.4989755,5.06515686 65.477155,5.63180392 C65.7829849,4.09117647 65.488068,4.0952549 64.829562,4.0952549 C63.704193,4.0952549 63.4550574,4.1345098 63.4550574,4.1345098 L63.6797053,2.78327451 L61.3413971,2.78327451 L59.7752496,12.1042745 L62.3547083,12.1042745 L62.3547083,12.1045294 Z" id="use14701"></path>
                        </g>
                        <g id="g10289" transform="translate(0.798512, 0.000000)" fill="#FFFFFF">
                            <path d="M29.9266188,11.7405294 L30.2409662,9.69647059 C30.0692862,9.69647059 29.8166904,9.76682353 29.5939056,9.76682353 C28.7198016,9.76682353 28.6234478,9.32176471 28.6790775,8.99268627 L29.3852279,4.82198039 L30.7136851,4.82198039 L31.0344206,2.561 L29.781822,2.561 L30.0368134,1.15496078 L27.5257605,1.15496078 C27.470397,1.20798039 26.0434567,9.06278431 26.0434567,10.0191765 C26.0434567,11.4351569 26.8736427,12.0657843 28.0442607,12.0555882 C28.9609521,12.0481961 29.6748215,11.8052745 29.9266188,11.7405294 Z" id="path4157"></path>
                            <path d="M30.7222025,7.84333333 C30.7222025,11.2416863 33.0645033,12.0492157 35.0599839,12.0492157 C36.901884,12.0492157 37.7123733,11.6548824 37.7123733,11.6548824 L38.1547488,9.33552941 C38.1547488,9.33552941 36.753627,9.92664706 35.4882523,9.92664706 C32.7919447,9.92664706 33.2641312,8.00137255 33.2641312,8.00137255 L38.3671529,8.00137255 C38.3671529,8.00137255 38.696672,6.44315686 38.696672,5.80819608 C38.696672,4.22372549 37.8731403,2.29309804 35.1161459,2.29309804 C32.5912521,2.29360784 30.7222025,4.89896078 30.7222025,7.84333333 Z M35.125728,4.44676471 C36.54282,4.44676471 36.2814405,5.97184314 36.2814405,6.09521569 L33.4935702,6.09521569 C33.4935702,5.93768627 33.7570791,4.44676471 35.125728,4.44676471 Z" id="path4155"></path>
                            <path d="M51.0267562,11.7395098 L51.4760521,9.11784314 C51.4760521,9.11784314 50.2439487,9.70947059 49.3983248,9.70947059 C47.6171116,9.70947059 46.9027098,8.40692157 46.9027098,7.0075098 C46.9027098,4.16866667 48.4353198,2.60688235 50.141473,2.60688235 C51.4209548,2.60688235 52.4478407,3.29486275 52.4478407,3.29486275 L52.8577434,0.747627451 C52.8577434,0.747627451 51.3349817,0.157529412 50.0296814,0.157529412 C47.130818,0.157529412 44.3107411,2.56584314 44.3107411,7.08882353 C44.3107411,10.088 45.8335028,12.0688431 48.8300507,12.0688431 C49.6772716,12.069098 51.0267562,11.7395098 51.0267562,11.7395098 Z" id="path4151"></path>
                            <path d="M16.1158278,2.33056863 C14.3939706,2.33056863 13.0740309,2.8605098 13.0740309,2.8605098 L12.7096434,4.93209804 C12.7096434,4.93209804 13.7990794,4.50819608 15.4458766,4.50819608 C16.3809337,4.50819608 17.064992,4.60888235 17.064992,5.33662745 C17.064992,5.77862745 16.9811483,5.94176471 16.9811483,5.94176471 C16.9811483,5.94176471 16.2435897,5.88262745 15.9020929,5.88262745 C13.7304074,5.88262745 11.4490597,6.77019608 11.4490597,9.44615686 C11.4490597,11.5547059 12.9457367,12.0385098 13.873341,12.0385098 C15.6449722,12.0385098 16.4086154,10.9375882 16.4493395,10.9342745 L16.3665605,11.8531961 L18.5776392,11.8531961 L19.5640672,5.23058824 C19.5640672,2.42105882 17.0048375,2.33056863 16.1158278,2.33056863 Z M16.6537585,7.72276471 C16.7016692,8.12729412 16.3889188,10.0235098 14.8770701,10.0235098 C14.0971904,10.0235098 13.8943685,9.45303922 13.8943685,9.11554902 C13.8943685,8.45739216 14.2678058,7.66719608 16.1078427,7.66719608 C16.535845,7.66770588 16.5816263,7.71154902 16.6537585,7.72276471 Z" id="path4149"></path>
                            <path d="M21.9140869,11.9900784 C22.4796993,11.9900784 25.7131391,12.1277255 25.7131391,8.93252941 C25.7131391,5.94533333 22.7200513,6.53543137 22.7200513,5.33535294 C22.7200513,4.73786275 23.207942,4.5497451 24.0996133,4.5497451 C24.4536201,4.5497451 25.8156148,4.65756863 25.8156148,4.65756863 L26.1323577,2.53423529 C26.1323577,2.5344902 25.2508009,2.34535294 23.8156093,2.34535294 C21.9580051,2.34535294 20.072453,3.0555098 20.072453,5.48523529 C20.072453,8.23843137 23.2164594,7.96211765 23.2164594,9.12192157 C23.2164594,9.89605882 22.3380966,9.95901961 21.6612249,9.95901961 C20.4898084,9.95901961 19.4349745,9.57411765 19.4312481,9.59247059 L19.0964056,11.6943922 C19.1570925,11.7122353 19.8076133,11.9900784 21.9140869,11.9900784 Z" id="path4145"></path>
                            <path d="M71.8266533,0.425176471 L71.2849962,3.64382353 C71.2849962,3.64382353 70.3398246,2.39352941 68.8601826,2.39352941 C66.5594044,2.39352941 64.6416456,5.05011765 64.6416456,8.10256863 C64.6416456,10.0729608 65.664539,12.0035882 67.7555748,12.0035882 C69.2597046,12.0035882 70.0936169,10.9992745 70.0936169,10.9992745 L69.9831561,11.8570196 L72.425537,11.8570196 L74.3438281,0.421352941 L71.8266533,0.425176471 Z M70.6605601,6.70086275 C70.6605601,7.97103922 70.0039174,9.66766667 68.6424551,9.66766667 C67.7388061,9.66766667 67.3153287,8.94119608 67.3153287,7.80101961 C67.3153287,5.93666667 68.189699,4.7065098 69.2929759,4.7065098 C70.196891,4.7062549 70.6605601,5.30094118 70.6605601,6.70086275 Z" id="path4139"></path>
                            <polygon id="path4133" points="2.51957036 11.8669608 4.04818778 3.23343137 4.27256955 11.8669608 6.00267808 11.8669608 9.22999591 3.23343137 7.80039392 11.8669608 10.371069 11.8669608 12.3508455 0.416 8.37558847 0.416 5.89993625 7.44186275 5.77110971 0.416 2.10673984 0.416 0.0984831008 11.8669608"></polygon>
                            <path d="M41.2079911,11.8827647 C41.9388954,7.90221569 42.0743762,4.67005882 43.8185918,5.26168627 C44.1238894,3.72105882 44.4185402,3.12509804 44.7517857,2.47305882 C44.7517857,2.47305882 44.5955436,2.44170588 44.2676215,2.44170588 C43.1430509,2.44170588 42.3099371,3.913 42.3099371,3.913 L42.5337865,2.56176471 L40.1957445,2.56176471 L38.6293309,11.8827647 L41.2079911,11.8827647 Z" id="path4131"></path>
                            <g id="use8523" transform="translate(51.904906, 2.294118)">
                                <path d="M4.91590375,0.0364509804 C3.19404651,0.0364509804 1.87410679,0.566392157 1.87410679,0.566392157 L1.50998549,2.63798039 C1.50998549,2.63798039 2.59942152,2.21407843 4.24621867,2.21407843 C5.18127578,2.21407843 5.86480174,2.31476471 5.86480174,3.0425098 C5.86480174,3.4845098 5.78149036,3.64764706 5.78149036,3.64764706 C5.78149036,3.64764706 5.04393178,3.5885098 4.70216881,3.5885098 C2.53074952,3.5885098 0.249401798,4.47607843 0.249401798,7.15203922 C0.249401798,9.26058824 1.74581259,9.74439216 2.67341693,9.74439216 C4.44504806,9.74439216 5.20869135,8.64347059 5.24914927,8.64015686 L5.16690257,9.55907843 C5.16690257,9.55907843 7.37718276,9.55907843 7.37798127,9.55907843 L8.36414313,2.93647059 C8.3644093,0.126941176 5.80491336,0.0364509804 4.91590375,0.0364509804 Z M5.45463293,5.42864706 C5.50254363,5.83317647 5.18952707,7.72939216 3.67714605,7.72939216 C2.89726636,7.72939216 2.69497674,7.15892157 2.69497674,6.82143137 C2.69497674,6.16327451 3.06841402,5.37307843 4.90818481,5.37307843 C5.33618704,5.37358824 5.3817022,5.41743137 5.45463293,5.42864706 Z" id="path4149_1_"></path>
                            </g>
                            <g id="use8525" transform="translate(59.698246, 2.294118)">
                                <path d="M2.59170257,9.58864706 C3.32287305,5.60809804 3.45835386,2.37594118 5.20203709,2.96756863 C5.50786704,1.42694118 5.802784,0.830980392 6.13576335,0.178941176 C6.13576335,0.178941176 5.97952124,0.147588235 5.65159913,0.147588235 C4.52702859,0.147588235 3.69391479,1.61888235 3.69391479,1.61888235 L3.91776422,0.267647059 L1.57972217,0.267647059 L0.0133085271,9.58864706 L2.59170257,9.58864706 Z" id="path4131_1_"></path>
                            </g>
                            <path d="M74.2895293,10.4446078 C74.417025,10.4446078 74.5426575,10.4759608 74.6637651,10.5396863 C74.7859374,10.6013725 74.8809602,10.6921176 74.9490999,10.8096275 C75.0175057,10.9263725 75.0510432,11.0479608 75.0510432,11.1751569 C75.0510432,11.3008235 75.0175057,11.4221569 74.9501646,11.5381373 C74.8833558,11.6541176 74.7893976,11.7451176 74.66829,11.809098 C74.5474486,11.8728235 74.4207514,11.9049412 74.2892631,11.9049412 C74.1567102,11.9049412 74.030013,11.8728235 73.9089054,11.809098 C73.788064,11.7446078 73.694372,11.6541176 73.627297,11.5381373 C73.5591573,11.4221569 73.525886,11.3008235 73.525886,11.1751569 C73.525886,11.0479608 73.5596897,10.9263725 73.6280955,10.8096275 C73.6967675,10.6921176 73.7920566,10.6018824 73.9136965,10.5396863 C74.0364011,10.4759608 74.1620336,10.4446078 74.2895293,10.4446078 M74.2895293,10.5649216 C74.1827949,10.5649216 74.0784561,10.5914314 73.9765127,10.6447059 C73.8748356,10.6967059 73.7957829,10.771902 73.7385563,10.8702941 C73.6815958,10.9674118 73.6528494,11.0691176 73.6528494,11.1746471 C73.6528494,11.2801765 73.6805311,11.3811176 73.7361607,11.4774706 C73.7928551,11.5735686 73.8716416,11.6490196 73.9733187,11.7033137 C74.0739312,11.7563333 74.1790685,11.783098 74.2895293,11.783098 C74.3991916,11.783098 74.5051274,11.7563333 74.6057399,11.7033137 C74.7063524,11.6490196 74.7851389,11.5735686 74.8410347,11.4774706 C74.8971967,11.3803529 74.9246122,11.2801765 74.9246122,11.1746471 C74.9246122,11.0691176 74.896132,10.9674118 74.8391715,10.8702941 C74.7824771,10.771902 74.7034245,10.6967059 74.601215,10.6447059 C74.5000702,10.5916863 74.3965299,10.5649216 74.2895293,10.5649216 M73.9554853,11.5784118 L73.9554853,10.792549 L74.2378922,10.792549 C74.3339798,10.792549 74.4042488,10.7999412 74.4468361,10.8149804 C74.4899557,10.829 74.5237594,10.8542353 74.5501103,10.8906863 C74.5759288,10.9268824 74.5889712,10.9648627 74.5889712,11.0056471 C74.5889712,11.063 74.5671452,11.1132157 74.5240256,11.1555294 C74.4819706,11.1978431 74.4252763,11.2223137 74.3544749,11.226902 C74.382689,11.2386275 74.406112,11.2526471 74.4242116,11.268451 C74.4569506,11.299549 74.4974085,11.351549 74.5453192,11.4241961 L74.6456655,11.5781569 L74.4835676,11.5781569 L74.4114354,11.4545294 C74.3539426,11.356902 74.3078951,11.2962353 74.2727606,11.2715098 C74.248539,11.2534118 74.2131384,11.2444902 74.1665585,11.2444902 L74.0891029,11.2444902 L74.0891029,11.5786667 L73.9554853,11.5784118 M74.0880382,11.1361569 L74.2488052,11.1361569 C74.3257285,11.1361569 74.3776318,11.1251961 74.4053135,11.1032745 C74.4332614,11.0818627 74.4479008,11.052549 74.4479008,11.016098 C74.4479008,10.992902 74.4412465,10.972 74.427938,10.9544118 C74.4143633,10.935549 74.3954652,10.9220392 74.3712437,10.9126078 C74.3470221,10.9036863 74.3036363,10.899098 74.2386907,10.899098 L74.0883044,10.899098 L74.0883044,11.1361569" id="text9407"></path>
                        </g>
                    </g>
                </g>
            </g>
            <g id="Group" transform="translate(0.000000, 65.000000)">
                <rect id="Rectangle-Copy-2" fill="#FFFFFF" x="0" y="0" width="90" height="62" rx="8"></rect>
                <g id="Visa_Inc._logo" transform="translate(6.000000, 18.000000)" fill-rule="nonzero">
                    <polygon id="polygon9" fill="#00579F" points="33.1522675 24 27 24 30.8480689 0 37 0"></polygon>
                    <path d="M56,1.03031755 C54.7506745,0.540651519 52.769141,0 50.3189806,0 C44.0640404,0 39.6593627,3.29523679 39.6323465,8.00643307 C39.5803923,11.4823433 42.7859669,13.4129483 45.1834804,14.5719272 C47.6339872,15.7562278 48.4669863,16.5292226 48.4669863,17.5848618 C48.4420483,19.2061319 46.4868383,19.9534629 44.6632456,19.9534629 C42.1344611,19.9534629 40.7794954,19.5681632 38.720377,18.6661648 L37.8863388,18.2794963 L37,23.7120175 C38.485544,24.380646 41.2224916,24.973994 44.0640404,25 C50.7100226,25 55.036769,21.7557487 55.0880305,16.7352176 C55.1133149,13.9802902 53.4206468,11.869354 49.7713833,10.1444019 C47.5560559,9.0370928 46.1993583,8.29044621 46.1993583,7.15747331 C46.2253354,6.12749795 47.3468536,5.07254312 49.8475828,5.07254312 C51.9067012,5.02087325 53.4196077,5.50985491 54.5657175,5.99917876 L55.1385992,6.25615932 L56,1.03031755 Z" id="path11" fill="#00579F"></path>
                    <path d="M64.9169295,15.497872 C65.444795,14.1190843 67.4759902,8.78277222 67.4759902,8.78277222 C67.4493516,8.83401439 68.0028041,7.37853315 68.319313,6.48501902 L68.7672625,8.55303084 C68.7672625,8.55303084 69.9810726,14.2979229 70.2446547,15.497872 C69.2429022,15.497872 66.1829653,15.497872 64.9169295,15.497872 Z M72.828952,0 L67.871013,0 C66.342096,0 65.1805117,0.43369201 64.5208552,1.99131824 L55,24 L61.7255521,24 C61.7255521,24 62.8328076,21.0377953 63.0708027,20.3998134 C63.8086225,20.3998134 70.3512093,20.3998134 71.3003856,20.3998134 C71.4844024,21.2424247 72.0651945,24 72.0651945,24 L78,24 L72.828952,4.82248368e-15 Z" id="path13" fill="#00579F"></path>
                    <path d="M23.1031387,0 L16.7155972,16.3830769 L16.0176007,13.0603972 C14.8366777,9.22645756 11.1330521,5.06096335 7,2.98976631 L12.8507583,24 L19.7479763,24 L30,0 L23.1031387,1.20688373e-15 Z" id="path15" fill="#00579F"></path>
                    <path d="M10.0424588,0 L0.101698351,0 L0,0.48315951 C7.75441481,2.46752841 12.8900126,7.25077375 15,13 L12.8389945,2.01006528 C12.4832192,0.4828214 11.3898775,0.0503784234 10.0424588,0 Z" id="path17" fill="#FAA61A"></path>
                </g>
            </g>
        </g>
    </g>
</svg>