<svg xmlns="http://www.w3.org/2000/svg" xmlns:xlink="http://www.w3.org/1999/xlink" width="13" height="13" viewBox="0 0 13 13"><defs><path id="acuza" d="M550.44 545.97h1.44a5.6 5.6 0 0 1-2.29 1.73c.34-.48.62-1.06.85-1.73zm-2.49 0h1.58c-.37 1.04-.9 1.8-1.58 2.04zm-2.48 0h1.58v2.04c-.67-.24-1.21-1-1.58-2.04zm-2.35 0h1.44c.23.67.51 1.25.85 1.73a5.6 5.6 0 0 1-2.3-1.73zm7.85-3.02h2.1a5.57 5.57 0 0 1-.6 2.12h-1.78c.16-.66.25-1.37.28-2.12zm-3.02 0h2.11c-.03.74-.12 1.46-.27 2.12h-1.84zm-3.01 0h2.1v2.12h-1.83c-.15-.66-.24-1.38-.27-2.12zm-3.01 0h2.1c.03.75.12 1.46.28 2.12h-1.78a5.57 5.57 0 0 1-.6-2.12zm8.76-3.02h1.77c.34.63.55 1.35.61 2.1h-2.1c-.03-.74-.12-1.45-.28-2.1zm-2.74 0h1.84c.15.65.24 1.36.27 2.1h-2.1zm-2.74 0h1.84v2.1h-2.11c.03-.74.12-1.45.27-2.1zm-2.67 0h1.77c-.16.65-.25 1.36-.28 2.1h-2.1c.06-.75.27-1.47.6-2.1zm7.05-2.62c.9.37 1.7.96 2.29 1.7h-1.45a6.7 6.7 0 0 0-.84-1.7zm-4.18 0a6.7 6.7 0 0 0-.84 1.7h-1.45a5.59 5.59 0 0 1 2.29-1.7zm2.54-.33c.68.24 1.22 1 1.59 2.04h-1.59zm-.9 0v2.04h-1.58c.37-1.04.91-1.8 1.59-2.04zm.45-.98a6.5 6.5 0 1 0 .01 13.01 6.5 6.5 0 0 0-.01-13.01z"/></defs><g><g transform="translate(-541 -536)"><g><g><use fill="#fff" xlink:href="#acuza"/></g></g></g></g></svg>