<svg
    width="30px"
    height="30px"
    viewBox="0 0 11 11"
    version="1.1"
    xmlns="http://www.w3.org/2000/svg">
  <defs></defs>
  <g id="Dashboard" stroke="none" stroke-width="1" fill="#25265E" fill-rule="evenodd">
    <g id="Empty-messages-Dashboard" transform="translate(-1131.000000, -195.000000)" fill="#25265E" fill-rule="nonzero">
      <g id="Profile-Menu" transform="translate(1102.000000, 63.000000)">
        <g id="Group-25" transform="translate(29.000000, 20.000000)">
          <g id="Group-24" transform="translate(0.000000, 77.000000)">
            <g id="Group-18" transform="translate(0.000000, 32.000000)">
              <g id="settings" transform="translate(0.000000, 3.000000)">
                <path d="M5.50124889,7.425 C4.40827601,7.425 3.52224644,6.56314814 3.52224644,5.5 C3.52224644,4.43685186 4.40827601,3.575 5.50124889,3.575 C6.59422176,3.575 7.48025134,4.43685186 7.48025134,5.5 C7.48025134,6.56314814 6.59422176,7.425 5.50124889,7.425 Z M9.70238838,6.0335 C9.72500555,5.8575 9.74196843,5.6815 9.74196843,5.5 C9.74196843,5.3185 9.72500555,5.137 9.70238838,4.95 L10.8954441,4.0535 C11.0028757,3.971 11.0311472,3.8225 10.9632957,3.7015 L9.83243712,1.7985 C9.7645856,1.6775 9.6119197,1.628 9.48752526,1.6775 L8.07960637,2.2275 C7.78558315,2.013 7.48025134,1.826 7.1240309,1.6885 L6.91482207,0.231 C6.8922049,0.099 6.77346475,0 6.63210743,0 L4.37039034,0 C4.22903303,0 4.11029288,0.099 4.08767571,0.231 L3.87846688,1.6885 C3.52224644,1.826 3.21691463,2.013 2.92289141,2.2275 L1.51497252,1.6775 C1.39057808,1.628 1.23791218,1.6775 1.17006066,1.7985 L0.0392021184,3.7015 C-0.034303687,3.8225 -0.000377930703,3.971 0.107053631,4.0535 L1.3001094,4.95 C1.27749222,5.137 1.26052935,5.3185 1.26052935,5.5 C1.26052935,5.6815 1.27749222,5.8575 1.3001094,6.0335 L0.107053631,6.9465 C-0.000377930703,7.029 -0.034303687,7.1775 0.0392021184,7.2985 L1.17006066,9.2015 C1.23791218,9.3225 1.39057808,9.3665 1.51497252,9.3225 L2.92289141,8.767 C3.21691463,8.987 3.52224644,9.174 3.87846688,9.3115 L4.08767571,10.769 C4.11029288,10.901 4.22903303,11 4.37039034,11 L6.63210743,11 C6.77346475,11 6.8922049,10.901 6.91482207,10.769 L7.1240309,9.3115 C7.48025134,9.1685 7.78558315,8.987 8.07960637,8.767 L9.48752526,9.3225 C9.6119197,9.3665 9.7645856,9.3225 9.83243712,9.2015 L10.9632957,7.2985 C11.0311472,7.1775 11.0028757,7.029 10.8954441,6.9465 L9.70238838,6.0335 Z"
                    id="Shape"></path>
              </g>
            </g>
          </g>
        </g>
      </g>
    </g>
  </g>
</svg>