<svg
    width="11px"
    height="11px"
    viewBox="0 0 11 11"
    version="1.1"
    xmlns="http://www.w3.org/2000/svg"
    xmlns:xlink="http://www.w3.org/1999/xlink">
  <desc></desc>
  <defs></defs>
  <g id="Dashboard" stroke="none" stroke-width="1" fill="none" fill-rule="evenodd">
    <g id="Empty-messages-Dashboard" transform="translate(-1131.000000, -249.000000)" fill="#FF8787" fill-rule="nonzero">
      <g id="Profile-Menu" transform="translate(1102.000000, 63.000000)">
        <g id="Group-25" transform="translate(29.000000, 20.000000)">
          <g id="Group-24" transform="translate(0.000000, 77.000000)">
            <g id="Group-21" transform="translate(0.000000, 86.000000)">
              <g id="Group-31" transform="translate(0.000000, 3.000000)">
                <path d="M6.19555556,7.154 L7.73037037,5.6 L2,5.6 L2,4.4 L7.73037037,4.4 L6.19555556,2.846 L7.03703704,2 L10,5 L7.03703704,8 L6.19555556,7.154 Z M9.77777778,0 C10.4527925,0 11,0.547207528 11,1.22222222 L11,4.07611111 L9.77777778,2.85388889 L9.77777778,1.22222222 L1.22222222,1.22222222 L1.22222222,9.77777778 L9.77777778,9.77777778 L9.77777778,8.14611111 L11,6.92388889 L11,9.77777778 C11,10.4527925 10.4527925,11 9.77777778,11 L1.22222222,11 C0.543888889,11 0,10.45 0,9.77777778 L0,1.22222222 C0,0.543888889 0.543888889,0 1.22222222,0 L9.77777778,0 Z"
                    id="Shape"></path>
              </g>
            </g>
          </g>
        </g>
      </g>
    </g>
  </g>
</svg>