<?xml version="1.0" encoding="UTF-8"?>
<svg width="16px" height="14px" viewBox="0 0 16 14" version="1.1" xmlns="http://www.w3.org/2000/svg" xmlns:xlink="http://www.w3.org/1999/xlink">
    <!-- Generator: sketchtool 50.2 (55047) - http://www.bohemiancoding.com/sketch -->
    <title>684635C9-BC0B-4DFC-88F3-C416D536DE6F</title>
    <desc>Created with sketchtool.</desc>
    <defs></defs>
    <g id="Admin-Panel" stroke="none" stroke-width="1" fill="none" fill-rule="evenodd">
        <g id="Admin-Reports" transform="translate(-614.000000, -587.000000)" fill="#999999" fill-rule="nonzero">
            <g id="Group-22" transform="translate(180.000000, 425.000000)">
                <g id="Group-20" transform="translate(0.000000, 49.000000)">
                    <g id="Group-10" transform="translate(117.000000, 104.000000)">
                        <g id="Group-4-Copy" transform="translate(317.000000, 0.000000)">
                            <g id="noun_users_1596607" transform="translate(0.000000, 9.000000)">
                                <g id="users-icon">
                                    <path d="M5,7.02 C5.22,7.02 5.44,6.99 5.65,6.93 C6.08,6.04 6.71,5.27 7.49,4.69 C7.5,4.63 7.5,4.57 7.5,4.51 C7.5,3.13 6.38,2.01 5,2.01 C3.62,2.01 2.5,3.13 2.5,4.51 C2.5,5.9 3.62,7.02 5,7.02 Z" id="Shape"></path>
                                    <path d="M5.35,7.69 C4.384,7.778 3.494,7.515 2.81,7.01 C1.15,7.86 0.01,9.68 0.01,11.78 C0.01,14.26 7.21,14.63 9.38,12.89 C5.918,12.461 4.234,11.038 5.35,7.69 Z" id="Shape"></path>
                                    <circle id="Oval" cx="11" cy="2.535" r="2.501"></circle>
                                    <path d="M13.189,5.034 C11.918,5.968 10.085,5.97 8.812,5.034 C7.148,5.884 6.01,7.698 6.01,9.799 C6.01,12.725 15.99,12.725 15.99,9.799 C15.99,7.698 14.852,5.884 13.189,5.034 Z" id="Shape"></path>
                                </g>
                            </g>
                        </g>
                    </g>
                </g>
            </g>
        </g>
    </g>
</svg>