<svg xmlns="http://www.w3.org/2000/svg" xmlns:xlink="http://www.w3.org/1999/xlink" width="14" height="14" viewBox="0 0 15 15"><defs><path id="pb94a" d="M552.27 208.12c-1.07-1.3-3.67-1.75-4.77-1.75-1.1 0-3.7.45-4.77 1.75a6 6 0 1 1 10.77-3.62c0 1.36-.47 2.62-1.23 3.62zm-8.47 1.08c.33-.67 2.3-1.32 3.7-1.32 1.42 0 3.4.65 3.7 1.32a5.95 5.95 0 0 1-7.4 0zm3.7-12.2a7.5 7.5 0 1 0 0 15 7.5 7.5 0 0 0 0-15z"/><path id="pb94b" d="M547.5 203.75a1.12 1.12 0 1 1 0-2.25 1.12 1.12 0 0 1 0 2.25zm0-3.75a2.62 2.62 0 0 0-2.62 2.63 2.62 2.62 0 0 0 2.63 2.62 2.62 2.62 0 0 0 2.62-2.63 2.62 2.62 0 0 0-2.63-2.62z"/></defs><g><g transform="translate(-540 -197)"><g><use fill="#1B2733" xlink:href="#pb94a"/></g><g><use fill="#1B2733" xlink:href="#pb94b"/></g></g></g></svg>