<?xml version="1.0" encoding="UTF-8"?>
<svg width="21px" height="20px" viewBox="0 0 21 20" version="1.1" xmlns="http://www.w3.org/2000/svg" xmlns:xlink="http://www.w3.org/1999/xlink">
    <!-- Generator: Sketch 50.2 (55047) - http://www.bohemiancoding.com/sketch -->
    <title>eye copy 2</title>
    <desc>Created with Sketch.</desc>
    <defs></defs>
    <g id="Settings" stroke="none" stroke-width="1" fill="none" fill-rule="evenodd">
        <g id="Settings-Change-password" transform="translate(-812.000000, -613.000000)">
            <g id="Group-3" transform="translate(283.000000, 191.000000)">
                <g id="Group-10" transform="translate(237.000000, 171.000000)">
                    <g id="eye-copy-2" transform="translate(292.000000, 252.000000)">
                        <path d="M10.5,6.2 C8.91845731,6.2 7.63636364,7.4536027 7.63636364,9 C7.63636364,10.5463973 8.91845731,11.8 10.5,11.8 C12.0815427,11.8 13.3636364,10.5463973 13.3636364,9 C13.3636364,7.4536027 12.0815427,6.2 10.5,6.2 Z M10.5,13.6666667 C7.86409551,13.6666667 5.72727273,11.5773288 5.72727273,9 C5.72727273,6.42267117 7.86409551,4.33333333 10.5,4.33333333 C13.1359045,4.33333333 15.2727273,6.42267117 15.2727273,9 C15.2727273,11.5773288 13.1359045,13.6666667 10.5,13.6666667 Z M10.5,2 C5.72727273,2 1.65136364,4.90266667 0,9 C1.65136364,13.0973333 5.72727273,16 10.5,16 C15.2727273,16 19.3486364,13.0973333 21,9 C19.3486364,4.90266667 15.2727273,2 10.5,2 Z" id="Shape" fill="#7F7F7F" fill-rule="nonzero"></path>
                        <path d="M19.5,0.5 L2.47224362,17.5277564" id="Line-3" stroke="#7F7F7F" stroke-width="1.5" stroke-linecap="square"></path>
                    </g>
                </g>
            </g>
        </g>
    </g>
</svg>