<?xml version="1.0" encoding="UTF-8"?>
<svg width="19px" height="11px" viewBox="0 0 19 11" version="1.1" xmlns="http://www.w3.org/2000/svg" xmlns:xlink="http://www.w3.org/1999/xlink">
    <!-- Generator: Sketch 49.3 (51167) - http://www.bohemiancoding.com/sketch -->
    <title>outline-vpn_key-24px copy 2</title>
    <desc>Created with Sketch.</desc>
    <defs></defs>
    <g id="Sign-Up" stroke="none" stroke-width="1" fill="none" fill-rule="evenodd">
        <g id="Desktop" transform="translate(-285.000000, -471.000000)" fill="#F0E8E2" fill-rule="nonzero">
            <g id="outline-vpn_key-24px-copy-2" transform="translate(285.000000, 471.000000)">
                <g id="Outline">
                    <path d="M17.4166667,11 L12.6666667,11 L12.6666667,7.85714286 L10.545,7.85714286 C9.6425,9.75857143 7.695,11 5.54166667,11 C2.48583333,11 0,8.53285714 0,5.5 C0,2.46714286 2.48583333,0 5.54166667,0 C7.695,0 9.63458333,1.24142857 10.545,3.14285714 L19,3.14285714 L19,7.85714286 L17.4166667,7.85714286 L17.4166667,11 Z M14.25,9.42857143 L15.8333333,9.42857143 L15.8333333,6.28571429 L17.4166667,6.28571429 L17.4166667,4.71428571 L9.4525,4.71428571 L9.27041667,4.18785714 C8.71625,2.62428571 7.21208333,1.57142857 5.54166667,1.57142857 C3.35666667,1.57142857 1.58333333,3.33142857 1.58333333,5.5 C1.58333333,7.66857143 3.35666667,9.42857143 5.54166667,9.42857143 C7.21208333,9.42857143 8.71625,8.37571429 9.27041667,6.81214286 L9.4525,6.28571429 L14.25,6.28571429 L14.25,9.42857143 Z M5.54166667,7.85714286 C4.23541667,7.85714286 3.16666667,6.79642857 3.16666667,5.5 C3.16666667,4.20357143 4.23541667,3.14285714 5.54166667,3.14285714 C6.84791667,3.14285714 7.91666667,4.20357143 7.91666667,5.5 C7.91666667,6.79642857 6.84791667,7.85714286 5.54166667,7.85714286 Z M5.54166667,4.71428571 C5.10625,4.71428571 4.75,5.06785714 4.75,5.5 C4.75,5.93214286 5.10625,6.28571429 5.54166667,6.28571429 C5.97708333,6.28571429 6.33333333,5.93214286 6.33333333,5.5 C6.33333333,5.06785714 5.97708333,4.71428571 5.54166667,4.71428571 Z" id="Shape"></path>
                </g>
            </g>
        </g>
    </g>
</svg>