<?xml version="1.0" encoding="UTF-8"?>
<svg width="15px" height="15px" viewBox="0 0 15 15" version="1.1" xmlns="http://www.w3.org/2000/svg" xmlns:xlink="http://www.w3.org/1999/xlink">
    <!-- Generator: sketchtool 50.2 (55047) - http://www.bohemiancoding.com/sketch -->
    <title>E2D206A4-5811-4C22-9509-F114D2F3F21C</title>
    <desc>Created with sketchtool.</desc>
    <defs></defs>
    <g id="Symbols" stroke="none" stroke-width="1" fill="none" fill-rule="evenodd">
        <g id="icons" transform="translate(-75.000000, -240.000000)" fill="#4DA1FF" fill-rule="nonzero">
            <g id="Group-2" transform="translate(43.000000, 206.000000)">
                <g id="Outline" transform="translate(32.000000, 34.000000)">
                    <g id="Group">
                        <path d="M7.5,0 C3.36,0 0,3.36 0,7.5 C0,11.64 3.36,15 7.5,15 C11.64,15 15,11.64 15,7.5 C15,3.36 11.64,0 7.5,0 Z M3.8025,12.21 C4.125,11.535 6.09,10.875 7.5,10.875 C8.91,10.875 10.8825,11.535 11.1975,12.21 C10.1775,13.02 8.895,13.5 7.5,13.5 C6.105,13.5 4.8225,13.02 3.8025,12.21 Z M12.27,11.1225 C11.1975,9.8175 8.595,9.375 7.5,9.375 C6.405,9.375 3.8025,9.8175 2.73,11.1225 C1.965,10.1175 1.5,8.865 1.5,7.5 C1.5,4.1925 4.1925,1.5 7.5,1.5 C10.8075,1.5 13.5,4.1925 13.5,7.5 C13.5,8.865 13.035,10.1175 12.27,11.1225 Z" id="Shape"></path>
                        <path d="M7.5,3 C6.045,3 4.875,4.17 4.875,5.625 C4.875,7.08 6.045,8.25 7.5,8.25 C8.955,8.25 10.125,7.08 10.125,5.625 C10.125,4.17 8.955,3 7.5,3 Z M7.5,6.75 C6.8775,6.75 6.375,6.2475 6.375,5.625 C6.375,5.0025 6.8775,4.5 7.5,4.5 C8.1225,4.5 8.625,5.0025 8.625,5.625 C8.625,6.2475 8.1225,6.75 7.5,6.75 Z" id="Shape"></path>
                    </g>
                </g>
            </g>
        </g>
    </g>
</svg>