<svg width="231px" height="124px" viewBox="0 0 231 124" version="1.1" xmlns="http://www.w3.org/2000/svg" xmlns:xlink="http://www.w3.org/1999/xlink">
  <!-- Generator: Sketch 50.2 (55047) - http://www.bohemiancoding.com/sketch -->
  <desc>Created with Sketch.</desc>
  <defs>
    <polygon id="path-1" points="0 0.258952273 30.9887567 0.258952273 30.9887567 40.8871568 0 40.8871568"></polygon>
  </defs>
  <g id="Login" stroke="none" stroke-width="1" fill="none" fill-rule="evenodd">
    <g id="iPhone-8-Login-Design" transform="translate(-72.000000, -42.000000)">
      <g id="Group-26" transform="translate(72.000000, 42.000000)">
        <path d="M116.653427,21 C124.316976,21 127,14.2985789 127,10.6365823 C127,6.97365021 124.470633,0 116.538414,0 C108.606195,0 106,6.93482716 106,10.5 C106,14.0647051 108.606195,21 116.653427,21" id="Fill-1" fill="#00C7B5"></path>
        <path d="M116.346806,61 C108.682505,61 106,67.7009533 106,71.3634177 C106,75.025882 108.529311,82 116.461817,82 C124.393402,82 127,75.0647051 127,71.4995323 C127,67.9348272 124.393402,61 116.346806,61" id="Fill-3" fill="#900481"></path>
        <path d="M86.6368132,30 C82.9739626,30 76,32.5288512 76,40.4613565 C76,48.3938617 82.9351404,51 86.5002339,51 C90.065795,51 97,48.3938617 97,40.346346 C97,32.6825053 90.2996637,30 86.6368132,30" id="Fill-5" fill="#00C8D8"></path>
        <path d="M118.225856,41 C118.225856,41.0789311 118.222606,41.1532191 118.222606,41.2321502 C118.222606,41.9388155 118.235607,42.6134441 118.259286,43.2597503 C117.613444,43.2356067 116.93928,43.2230706 116.232615,43.2230706 C116.152291,43.2230706 116.078931,43.2253921 116.000464,43.2263207 C115.921069,43.2253921 115.847245,43.2230706 115.768314,43.2230706 C115.061184,43.2230706 114.386092,43.2356067 113.739785,43.2597503 C113.763929,42.6139084 113.776465,41.9388155 113.776465,41.2321502 C113.776465,41.1527548 113.774144,41.0789311 113.774144,41 C113.774144,40.9215332 113.776465,40.8477095 113.776465,40.7678498 C113.776465,40.0611845 113.763929,39.3865559 113.739785,38.740714 C114.386092,38.7643933 115.06072,38.7773937 115.76785,38.7773937 C115.847709,38.7773937 115.921069,38.7746079 116,38.7741436 C116.078467,38.7746079 116.152291,38.7773937 116.231686,38.7773937 C116.938816,38.7773937 117.613444,38.7643933 118.259286,38.740714 C118.235607,39.3865559 118.222606,40.0611845 118.222606,40.7678498 C118.222606,40.8477095 118.225856,40.9215332 118.225856,41 M131.370202,37.1379488 C132.598277,36.3667458 133.691704,35.5686133 133.944284,34.5049009 C133.976785,34.3451816 133.99675,34.1780334 134,34.0015993 C133.970749,32.2586154 131.87304,29.4895274 129.552466,27.448927 C127.51233,25.127889 124.742313,23.0297152 122.999329,23 C122.821967,23.0027858 122.655283,23.023215 122.495563,23.0561804 C121.432315,23.3087598 120.634183,24.4017231 119.86298,25.6302621 C118.862412,27.5083574 118.092138,29.6947482 116.231686,29.6506397 C116.153683,29.6487825 115.847245,29.6487825 115.76785,29.6506397 C113.907862,29.6947482 113.138052,27.5083574 112.137485,25.6302621 C111.365817,24.4017231 110.568149,23.3087598 109.504901,23.0561804 C109.344717,23.023215 109.178033,23.0027858 109.001599,23 C107.257687,23.0297152 104.488135,25.127889 102.447534,27.448927 C100.127425,29.4890631 98.0292509,32.2576868 98,34.0015993 C98.0032501,34.1780334 98.0227507,34.3451816 98.0557161,34.5049009 C98.3087598,35.5676847 99.4017231,36.3667458 100.630262,37.1370202 C102.507893,38.1375877 104.694284,38.9083265 104.650175,40.7678498 C104.647854,40.8472452 104.647854,41.1536835 104.650175,41.2321502 C104.694284,43.0926021 102.507893,43.8624123 100.630262,44.8629798 C99.4017231,45.6341828 98.3087598,46.4327796 98.0557161,47.4960277 C98.0227507,47.6552827 98.0032501,47.8224309 98,47.998865 C98.0292509,49.7427775 100.128353,52.5123298 102.449391,54.5533946 C104.489063,56.8739682 107.257687,58.9712134 109.000671,59 C109.177569,58.9972142 109.345182,58.9772493 109.504901,58.9442839 C110.568149,58.6912402 111.366746,57.5982769 112.13702,56.3702022 C113.137588,54.4921069 113.908326,52.3057161 115.768314,52.3502889 C115.846781,52.3521461 116.152755,52.3521461 116.232615,52.3502889 C118.092138,52.3057161 118.861948,54.4921069 119.862515,56.3702022 C120.634183,57.5982769 121.432315,58.6912402 122.495563,58.9442839 C122.655283,58.9772493 122.821502,58.9972142 122.998401,59 C124.74092,58.9712134 127.509544,56.8739682 129.550144,54.5538589 C131.871647,52.5132584 133.970749,49.7432418 134,47.998865 C133.99675,47.8224309 133.976785,47.6552827 133.944284,47.4960277 C133.691704,46.4327796 132.598277,45.6341828 131.370202,44.8634441 C129.492107,43.8628766 127.305716,43.0926021 127.349825,41.2321502 C127.351682,41.1536835 127.351682,40.8472452 127.349825,40.7678498 C127.305716,38.9083265 129.492107,38.1385163 131.370202,37.1379488" id="Fill-7" fill="#FFFFFF"></path>
        <path d="M147.499532,30 C143.934359,30 137,32.6061954 137,40.6534274 C137,48.317436 143.700486,51 147.363418,51 C151.025882,51 158,48.4710934 158,40.5384144 C158,32.6061954 151.064705,30 147.499532,30" id="Fill-9" fill="#651080"></path>
        <g id="Group-13" transform="translate(0.000000, 83.000000)">
          <mask id="mask-2" fill="white">
            <use xlink:href="#path-1"></use>
          </mask>
          <g id="Clip-12"></g>
          <path d="M16.6431597,40.8871568 C13.6542045,40.8871568 10.721697,40.3699977 7.84517463,39.3356795 C4.96818955,38.3013614 2.35354776,36.7116795 -0.00013880597,34.5675659 L5.09912985,28.4161682 C6.89250299,29.8837818 8.73214478,31.0504182 10.6189806,31.9151455 C12.5053537,32.7812705 14.5698612,33.2127023 16.8111149,33.2127023 C18.6044881,33.2127023 19.9957866,32.8837705 20.9863985,32.2254409 C21.9756224,31.5675773 22.4711597,30.6553273 22.4711597,29.4886909 L22.4711597,29.3759409 C22.4711597,28.811725 22.3679806,28.3136682 22.1620851,27.8803727 C21.9552642,27.448475 21.5624433,27.0436 20.9817716,26.6671455 C20.4015627,26.2916227 19.5955627,25.9151682 18.5660851,25.5387136 C17.5356821,25.1631909 16.1966672,24.7681 14.5490403,24.3539068 C12.5631896,23.8651682 10.7651896,23.3195886 9.15411493,22.7171682 C7.5430403,22.1161455 6.17626418,21.3725545 5.05286119,20.4882591 C3.92899552,19.6048955 3.0582194,18.5044182 2.44007015,17.1872932 C1.8219209,15.8711 1.51284627,14.2343614 1.51284627,12.2780091 L1.51284627,12.1652591 C1.51284627,10.3598614 1.84644328,8.73244091 2.51456269,7.28392955 C3.18268209,5.83681591 4.11962239,4.58538409 5.32630896,3.53149773 C6.53253284,2.47900909 7.97287612,1.669725 9.64826418,1.10504318 C11.3222642,0.540827273 13.1688463,0.258952273 15.1861597,0.258952273 C18.0626821,0.258952273 20.7060104,0.692247727 23.1156821,1.556975 C25.5253537,2.42216818 27.7388463,3.66381591 29.7561597,5.28098636 L25.2731896,11.8265432 C23.5163687,10.6231 21.7988761,9.67357727 20.1174731,8.97704318 C18.4365328,8.28144091 16.7551299,7.93340682 15.0741896,7.93340682 C13.3932493,7.93340682 12.1319657,8.26280455 11.2917269,8.92066818 C10.4510254,9.57946364 10.0304433,10.3976 10.0304433,11.3750773 L10.0304433,11.4878273 C10.0304433,12.1279864 10.1525925,12.6828841 10.3959657,13.1529864 C10.6393388,13.6235545 11.078891,14.0470659 11.7164731,14.4221227 C12.3531299,14.7990432 13.223906,15.1554636 14.3292642,15.4946455 C15.4341597,15.8333614 16.828697,16.2279864 18.5151896,16.6794523 C20.5001149,17.2068614 22.269891,17.7990318 23.8249806,18.4568955 C25.3791448,19.1156909 26.6899358,19.9058727 27.7578164,20.826975 C28.8252343,21.749475 29.6307716,22.8299182 30.1739657,24.0715659 C30.716697,25.3127477 30.9887567,26.7994636 30.9887567,28.52985 L30.9887567,28.6426 C30.9887567,30.5989523 30.6361896,32.3381909 29.9310552,33.8621795 C29.2254582,35.3852364 28.2422493,36.6646227 26.980503,37.6989409 C25.7178313,38.7341909 24.2117866,39.5239068 22.4623687,40.0690205 C20.7120254,40.6136682 18.772906,40.8871568 16.6431597,40.8871568" id="Fill-11" fill="#FFFFFF" mask="url(#mask-2)"></path>
        </g>
        <path d="M38,83 L46.6678662,83 L46.6678662,98.1993033 C47.1617872,97.5588884 47.703264,96.94537 48.2932383,96.3610668 C48.8822708,95.7762999 49.538164,95.2587742 50.2609178,94.8057073 C50.9822591,94.3526404 51.7808196,93.9951025 52.6556578,93.7307749 C53.5300251,93.4664472 54.5183379,93.3338197 55.6210671,93.3338197 C58.928784,93.3338197 61.4850253,94.3266714 63.2912035,96.3105199 C65.09644,98.2957597 66,101.028537 66,104.511169 L66,124 L57.3321338,124 L57.3321338,107.24812 C57.3321338,105.231346 56.8758807,103.708448 55.9633746,102.681744 C55.0508685,101.655503 53.7579162,101.14076 52.0854592,101.14076 C50.4120605,101.14076 49.0917988,101.655503 48.1223199,102.681744 C47.1528411,103.708448 46.6678662,105.231346 46.6678662,107.24812 L46.6678662,124 L38,124 L38,83 Z" id="Fill-14" fill="#FFFFFF"></path>
        <path d="M88.5568431,116.722234 C89.8088005,116.722234 90.9179455,116.509855 91.8852177,116.083262 C92.8524898,115.658504 93.6774194,115.074576 94.360476,114.333772 C95.043063,113.593427 95.5640464,112.731985 95.9253054,111.750363 C96.285155,110.769199 96.4655496,109.722441 96.4655496,108.611006 L96.4655496,108.5 C96.4655496,107.389024 96.2752897,106.343183 95.8966489,105.361102 C95.5170686,104.380397 94.966959,103.509781 94.2467899,102.75017 C93.5256812,101.991477 92.6720952,101.389201 91.6865017,100.944719 C90.6994989,100.500237 89.6185406,100.277766 88.4431569,100.277766 C87.1911995,100.277766 86.0815847,100.491521 85.1147823,100.916738 C84.1475102,101.343331 83.3221109,101.926341 82.639524,102.666686 C81.956937,103.408408 81.4350141,104.269391 81.0751644,105.250096 C80.7139054,106.232177 80.5344504,107.278018 80.5344504,108.388994 L80.5344504,108.5 C80.5344504,109.611435 80.7237707,110.658193 81.1033511,111.638898 C81.4819919,112.620979 82.0325712,113.491595 82.7532101,114.250289 C83.4733793,115.009899 84.3180395,115.611257 85.2853116,116.05574 C86.2525838,116.500222 87.3424679,116.722234 88.5568431,116.722234 M88.4431569,124 C86.0905105,124 83.9098027,123.601847 81.900094,122.805999 C79.8889759,122.009692 78.1536173,120.917064 76.6940182,119.528114 C75.2334795,118.139164 74.0853429,116.509855 73.2514876,114.639268 C72.4166928,112.769598 72,110.759566 72,108.611006 L72,108.5 C72,106.352816 72.4166928,104.343242 73.2514876,102.472655 C74.0853429,100.602527 75.242875,98.963585 76.7222048,97.5558285 C78.2015346,96.1485307 79.945819,95.0375544 81.956937,94.2224409 C83.9666458,93.4082448 86.1670842,93 88.5568431,93 C90.9080802,93 93.088788,93.3986121 95.099906,94.1949188 C97.1100846,94.9916842 98.8454432,96.0838537 100.305982,97.4723447 C101.766051,98.8612944 102.913718,100.491521 103.748512,102.361191 C104.582368,104.232236 105,106.241351 105,108.388994 L105,108.5 C105,110.64856 104.582368,112.658593 103.748512,114.528262 C102.913718,116.398849 101.757125,118.037332 100.277795,119.445089 C98.7984654,120.852845 97.0532415,121.963822 95.043063,122.778018 C93.0319449,123.592214 90.8329158,124 88.4431569,124" id="Fill-16" fill="#FFFFFF"></path>
        <path d="M125.556607,116.722234 C126.808547,116.722234 127.917676,116.509855 128.885404,116.083262 C129.852663,115.658504 130.677111,115.074576 131.360158,114.333772 C132.043205,113.593427 132.563711,112.731985 132.924965,111.750363 C133.284809,110.769199 133.465201,109.722441 133.465201,108.611006 L133.465201,108.5 C133.465201,107.389024 133.275414,106.343183 132.896309,105.361102 C132.516734,104.380397 131.966632,103.509781 131.246473,102.75017 C130.525375,101.991477 129.672271,101.389201 128.686221,100.944719 C127.699702,100.500237 126.61829,100.277766 125.442923,100.277766 C124.191453,100.277766 123.081384,100.491521 122.114596,100.916738 C121.147337,101.343331 120.32195,101.926341 119.639372,102.666686 C118.956795,103.408408 118.43488,104.269391 118.075035,105.250096 C117.714251,106.232177 117.534329,107.278018 117.534329,108.388994 L117.534329,108.5 C117.534329,109.611435 117.723647,110.658193 118.103691,111.638898 C118.481857,112.620979 119.032428,113.491595 119.753057,114.250289 C120.473686,115.009899 121.318334,115.611257 122.285122,116.05574 C123.252851,116.500222 124.342249,116.722234 125.556607,116.722234 M125.442923,124 C123.09078,124 120.909633,123.601847 118.899953,122.805999 C116.888864,122.009692 115.15353,120.917064 113.693951,119.528114 C112.233433,118.139164 111.085313,116.509855 110.25147,114.639268 C109.416687,112.769598 109,110.759566 109,108.611006 L109,108.5 C109,106.352816 109.416687,104.343242 110.25147,102.472655 C111.085313,100.602527 112.242829,98.963585 113.722138,97.5558285 C115.201446,96.1485307 116.946176,95.0375544 118.956795,94.2224409 C120.966475,93.4082448 123.166883,93 125.556607,93 C127.908281,93 130.088488,93.3986121 132.100047,94.1949188 C134.109727,94.9916842 135.845061,96.0838537 137.306049,97.4723447 C138.765627,98.8612944 139.913277,100.491521 140.74806,102.361191 C141.581904,104.232236 142,106.241351 142,108.388994 L142,108.5 C142,110.64856 141.581904,112.658593 140.74806,114.528262 C139.913277,116.398849 138.756701,118.037332 137.277393,119.445089 C135.798084,120.852845 134.052885,121.963822 132.043205,122.778018 C130.031645,123.592214 127.832648,124 125.442923,124" id="Fill-18" fill="#FFFFFF"></path>
        <path d="M158.865627,124 C157.500652,124 156.263145,123.860605 155.152624,123.582276 C154.041138,123.303487 153.085124,122.811695 152.286997,122.105521 C151.487422,121.400726 150.863599,120.48109 150.415528,119.34753 C149.966974,118.214891 149.742939,116.77586 149.742939,115.029516 L149.742939,100.876586 L146,100.876586 L146,93.6335835 L149.742939,93.6335835 L149.742939,86 L158.631935,86 L158.631935,93.6335835 L166,93.6335835 L166,100.876586 L158.631935,100.876586 L158.631935,113.681574 C158.631935,115.620678 159.5865,116.58954 161.497079,116.58954 C163.056154,116.58954 164.518179,116.218741 165.883154,115.475303 L165.883154,122.272978 C164.947419,122.793293 163.914152,123.211477 162.783835,123.52661 C161.652069,123.841743 160.346483,124 158.865627,124" id="Fill-20" fill="#FFFFFF"></path>
        <polygon id="Fill-22" fill="#FFFFFF" points="171 118.011276 186.455164 100.883867 171.502135 100.883867 171.502135 94 197 94 197 99.9887241 181.489555 117.115671 197 117.115671 197 124 171 124"></polygon>
        <path d="M213.378758,124 C210.071568,124 207.513957,123.029609 205.708751,121.08792 C203.902603,119.147139 203,116.472326 203,113.065751 L203,94 L211.66772,94 L211.66772,110.388217 C211.66772,112.362116 212.124437,113.8515 213.036457,114.855916 C213.948947,115.860785 215.240936,116.362539 216.914307,116.362539 C218.587207,116.362539 219.907917,115.860785 220.87785,114.855916 C221.846842,113.8515 222.331809,112.362116 222.331809,110.388217 L222.331809,94 L231,94 L231,123.450611 L222.331809,123.450611 L222.331809,119.240594 C221.837425,119.868014 221.295487,120.467306 220.706464,121.039378 C220.11697,121.610543 219.461088,122.118195 218.739288,122.560973 C218.016547,123.004204 217.218,123.354434 216.344118,123.61257 C215.468824,123.870705 214.480998,124 213.378758,124" id="Fill-24" fill="#FFFFFF"></path>
      </g>
    </g>
  </g>
</svg>