<svg xmlns="http://www.w3.org/2000/svg" xmlns:xlink="http://www.w3.org/1999/xlink" width="15" height="14" viewBox="0 0 15 14"><defs><path id="d5jxa" d="M553 293.3h-10.98a.31.31 0 0 1-.32-.31v-4.69l5.76 1.37a.34.34 0 0 0 .16 0l5.69-1.37V293c0 .17-.14.31-.32.31zm-10.98-8.43h10.97c.18 0 .32.14.32.31v2.4l-5.77 1.39-5.84-1.39v-2.4c0-.17.14-.31.32-.31zm2.91-1.86c0-.17.15-.31.32-.31h4.51c.17 0 .32.14.32.31v1.16h-5.15zm8.05 1.16h-2.21v-1.16c0-.56-.46-1.01-1.02-1.01h-4.5c-.56 0-1.02.45-1.02 1.01v1.16h-2.21c-.56 0-1.02.45-1.02 1.01v7.8c0 .57.46 1.02 1.02 1.02h10.96c.56 0 1.02-.45 1.02-1.01v-7.8c0-.57-.46-1.02-1.02-1.02z"/></defs><g><g transform="translate(-540 -281)"><g><use fill="#fff" xlink:href="#d5jxa"/><use fill="#fff" fill-opacity="0" stroke="#fff" stroke-miterlimit="50" stroke-width=".6" xlink:href="#d5jxa"/></g></g></g></svg>