<?xml version="1.0" encoding="UTF-8"?>
<svg width="15px" height="14px" viewBox="0 0 15 14" version="1.1" xmlns="http://www.w3.org/2000/svg" xmlns:xlink="http://www.w3.org/1999/xlink">
    <!-- Generator: sketchtool 50.2 (55047) - http://www.bohemiancoding.com/sketch -->
    <title>50DA6326-0107-4BB4-AA38-CC27133BEF46</title>
    <desc>Created with sketchtool.</desc>
    <defs></defs>
    <g id="Admin-Panel" stroke="none" stroke-width="1" fill="none" fill-rule="evenodd">
        <g id="User-Profile-Review-" transform="translate(-655.000000, -968.000000)" fill="#868686" fill-rule="nonzero" stroke="#868686" stroke-width="0.6">
            <g id="2nd-block" transform="translate(181.000000, 490.000000)">
                <g id="Group-9" transform="translate(475.000000, 477.000000)">
                    <g id="business-icon" transform="translate(0.000000, 2.000000)">
                        <path d="M11.984162,2.16988984 L9.76809477,2.16988984 L9.76809477,1.01136562 C9.76809477,0.453645742 9.31231687,0 8.75197568,0 L4.24816483,0 C3.68796418,0 3.23218629,0.453645742 3.23218629,1.01136562 L3.23218629,2.16988984 L1.01597855,2.16988984 C0.455777899,2.16988984 0,2.62353558 0,3.18111558 L0,10.9886344 C0,11.5463543 0.455777899,12 1.01597855,12 L11.9840214,12 C12.5442221,12 13,11.5463543 13,10.9886344 L13,3.18125546 C13.0001405,2.62353558 12.5443626,2.16988984 11.984162,2.16988984 Z M3.93475604,1.01136562 C3.93475604,0.839447456 4.0752981,0.699422976 4.24802429,0.699422976 L8.75183513,0.699422976 C8.92456132,0.699422976 9.06524393,0.839447456 9.06524393,1.01136562 L9.06524393,2.16988984 L3.93475604,2.16988984 L3.93475604,1.01136562 Z M1.01597855,2.86931282 L11.9840214,2.86931282 C12.1567476,2.86931282 12.2972897,3.00919741 12.2972897,3.18111558 L12.2972897,5.58293408 L6.5346436,6.96919042 L0.702710298,5.58237454 L0.702710298,3.18125546 C0.702710298,3.00919741 0.843252357,2.86931282 1.01597855,2.86931282 Z M11.984162,11.3008568 L1.01597855,11.3008568 C0.843252357,11.3008568 0.702710298,11.1608323 0.702710298,10.9889141 L0.702710298,6.30138136 L6.45355083,7.66903305 C6.48039437,7.67560762 6.50780007,7.67868508 6.53520577,7.67868508 C6.56289256,7.67868508 6.59071988,7.67546774 6.61770396,7.66889316 L12.2974302,6.30250044 L12.2974302,10.9887743 C12.2974302,11.1608323 12.1568882,11.3008568 11.984162,11.3008568 Z" id="Shape"></path>
                    </g>
                </g>
            </g>
        </g>
    </g>
</svg>