<?xml version="1.0" encoding="UTF-8"?>
<svg width="14px" height="17px" viewBox="0 0 14 17" version="1.1" xmlns="http://www.w3.org/2000/svg" xmlns:xlink="http://www.w3.org/1999/xlink">
    <!-- Generator: sketchtool 50.2 (55047) - http://www.bohemiancoding.com/sketch -->
    <title>79425879-4907-4242-9FE5-95D78918327C</title>
    <desc>Created with sketchtool.</desc>
    <defs></defs>
    <g id="Admin-Panel" stroke="none" stroke-width="1" fill="none" fill-rule="evenodd">
        <g id="User-Profile-Review-" transform="translate(-946.000000, -967.000000)" stroke="#868686">
            <g id="2nd-block" transform="translate(181.000000, 490.000000)">
                <g id="Group-12" transform="translate(765.000000, 477.000000)">
                    <g id="Group-8" transform="translate(1.000000, 0.000000)">
                        <g id="location2" transform="translate(0.000000, 1.000000)">
                            <path d="M6,0 C2.68285714,0 0,2.504 0,5.6 C0,9.8 6,16 6,16 C6,16 12,9.8 12,5.6 C12,2.504 9.31714286,0 6,0 L6,0 Z M6,8 C4.896,8 4,7.104 4,6 C4,4.896 4.896,4 6,4 C7.104,4 8,4.896 8,6 C8,7.104 7.104,8 6,8 L6,8 Z" id="Shape"></path>
                        </g>
                    </g>
                </g>
            </g>
        </g>
    </g>
</svg>