<?xml version="1.0" encoding="UTF-8"?>
<svg width="17px" height="13px" viewBox="0 0 17 13" version="1.1" xmlns="http://www.w3.org/2000/svg" xmlns:xlink="http://www.w3.org/1999/xlink">
    <!-- Generator: Sketch 49.3 (51167) - http://www.bohemiancoding.com/sketch -->
    <title>outline-markunread-24px</title>
    <desc>Created with Sketch.</desc>
    <defs></defs>
    <g id="Sign-Up" stroke="none" stroke-width="1" fill="none" fill-rule="evenodd">
        <g id="Desktop" transform="translate(-286.000000, -401.000000)">
            <g id="outline-markunread-24px" transform="translate(284.000000, 398.000000)">
                <g id="Bounding_Boxes">
                    <polygon id="Shape" points="0 0 20 0 20 20 0 20"></polygon>
                </g>
                <g id="Outline" transform="translate(2.000000, 3.000000)" fill="#F0E8E2" fill-rule="nonzero">
                    <path d="M17,1.625 C17,0.73125 16.235,0 15.3,0 L1.7,0 C0.765,0 0,0.73125 0,1.625 L0,11.375 C0,12.26875 0.765,13 1.7,13 L15.3,13 C16.235,13 17,12.26875 17,11.375 L17,1.625 Z M15.3,1.625 L8.5,5.6875 L1.7,1.625 L15.3,1.625 Z M15.3,11.375 L1.7,11.375 L1.7,3.25 L8.5,7.3125 L15.3,3.25 L15.3,11.375 Z" id="XMLID_1_"></path>
                </g>
            </g>
        </g>
    </g>
</svg>