<svg id="Layer_1" data-name="Layer 1" xmlns="http://www.w3.org/2000/svg" viewBox="0 0 65 68">
  <defs>
    <style>.cls-1{fill:#ffffff;}</style>
  </defs>
  <title>G</title>
  <path class="cls-1" d="M39.4,13l-.13.09L36,15.18a.62.62,0,0,1-.31.09h-3.2l.18.15a11.75,11.75,0,0,1,2.1,2.2,8.42,8.42,0,0,1,1.53,4,8.92,8.92,0,0,1-.41,4,8,8,0,0,1-2.11,3.19c-.61.58-1.27,1.1-1.9,1.65a6.46,6.46,0,0,0-1.23,1.37A2.43,2.43,0,0,0,31,35a19.16,19.16,0,0,0,1.62,1.35,30.16,30.16,0,0,1,3.3,2.87A7.84,7.84,0,0,1,38,42.73a8.35,8.35,0,0,1-1.07,6.67,11.06,11.06,0,0,1-4.27,3.89A16.12,16.12,0,0,1,28,54.9a22.16,22.16,0,0,1-5,.39,17.86,17.86,0,0,1-5-.8,10.21,10.21,0,0,1-4-2.29,6.62,6.62,0,0,1-2-3.75,6.69,6.69,0,0,1,.64-4.12,8.7,8.7,0,0,1,3.28-3.53,15.63,15.63,0,0,1,5.19-2,27.89,27.89,0,0,1,3.46-.51l2-.18L26.52,38a8.34,8.34,0,0,1-1.08-1.65,4.35,4.35,0,0,1-.05-3.65l.16-.4-.27,0a10.77,10.77,0,0,1-4.56-.38,8.37,8.37,0,0,1-5.75-6,8.82,8.82,0,0,1,1-6.78,10.4,10.4,0,0,1,4.72-4.36,16.87,16.87,0,0,1,4.7-1.46A21.71,21.71,0,0,1,28.89,13h10.5ZM26.41,53c.54,0,1.08-.06,1.62-.11A9.5,9.5,0,0,0,31.21,52a6,6,0,0,0,2.19-1.68,5.16,5.16,0,0,0,1.11-2.9,5,5,0,0,0-.85-3.29,9.08,9.08,0,0,0-1.5-1.64c-1.08-1-2.25-1.78-3.42-2.63a.83.83,0,0,0-.51-.17c-.65,0-1.31,0-2,0a19.88,19.88,0,0,0-3.74.54,9.58,9.58,0,0,0-3.39,1.48,5.28,5.28,0,0,0-2.28,5.36,5.42,5.42,0,0,0,1.6,3.12,8.47,8.47,0,0,0,3.48,2A15.34,15.34,0,0,0,26.41,53ZM31.5,25c0-.26,0-.76-.1-1.24a14.19,14.19,0,0,0-1-3.83,9.67,9.67,0,0,0-2.19-3.3,4.86,4.86,0,0,0-4.25-1.46,4.75,4.75,0,0,0-4,3.41,8.81,8.81,0,0,0-.23,3.92,13.58,13.58,0,0,0,1.13,3.93,8.89,8.89,0,0,0,2.08,3,5.19,5.19,0,0,0,3,1.38A5.37,5.37,0,0,0,29.14,30a4.36,4.36,0,0,0,2-2.34A7.63,7.63,0,0,0,31.5,25Z" />
  <path class="cls-1" d="M44.75,30.71v-.26q0-2.5,0-5c0-.24,0-.24.23-.24h2.33c.16,0,.2,0,.2.2q0,2.54,0,5.09v.23h5.31c.22,0,.22,0,.22.22q0,1.17,0,2.33c0,.23,0,.23-.23.23H47.74c-.23,0-.23,0-.23.22q0,2.54,0,5.09c0,.23,0,.23-.24.24H45c-.25,0-.25,0-.25-.26q0-2.52,0-5c0-.25,0-.25-.24-.25h-5c-.26,0-.26,0-.26-.27,0-.78,0-1.56,0-2.33,0-.16,0-.2.2-.19h5.3Z" />
</svg>