<svg width="31px" height="24px" viewBox="0 0 31 24" version="1.1" xmlns="http://www.w3.org/2000/svg">
  <defs></defs>
  <g id="Dashboard" stroke="none" stroke-width="1" fill="none" fill-rule="evenodd">
    <g transform="translate(-984.000000, -30.000000)" fill="#25265E" fill-rule="nonzero" id="Group-15">
      <g transform="translate(1.000000, -1.000000)">
        <g id="Menu">
          <g id="noun_message_1040055" transform="translate(983.000000, 25.000000)">
            <g id="Group">
              <g id="Group-16" transform="translate(0.000000, 6.000000)">
                <path d="M3.94880952,23.8125 L27.0142857,23.8125 C29.1916667,23.8125 30.9630952,22.0125 30.9630952,19.8 L30.9630952,4.2 C30.9630952,1.9875 29.1916667,0.1875 27.0142857,0.1875 L3.94880952,0.1875 C1.77142857,0.1875 0,1.9875 0,4.2 L0,19.7625 C0,22.0125 1.77142857,23.8125 3.94880952,23.8125 Z M2.21428571,4.2 C2.21428571,3.225 2.98928571,2.4375 3.94880952,2.4375 L27.0142857,2.4375 C27.9738095,2.4375 28.7488095,3.225 28.7488095,4.2 L28.7488095,19.7625 C28.7488095,20.7375 27.9738095,21.525 27.0142857,21.525 L3.94880952,21.525 C2.98928571,21.525 2.21428571,20.7375 2.21428571,19.7625 L2.21428571,4.2 Z"
                    id="Shape"></path>
                <path d="M3.69047619,20.25 C3.98571429,20.25 4.24404762,20.1375 4.46547619,19.9125 L10.702381,13.575 L13.1380952,16.2375 L13.175,16.275 C13.802381,16.9125 14.6511905,17.25 15.5,17.25 C16.3488095,17.25 17.197619,16.9125 17.8619048,16.275 L20.3714286,13.65 L26.202381,19.575 C26.4238095,19.8 26.7190476,19.9125 26.977381,19.9125 C27.2357143,19.9125 27.5309524,19.8 27.752381,19.575 C28.1952381,19.125 28.1952381,18.4125 27.752381,18 L21.8845238,12 L27.4202381,6.1875 C27.8261905,5.7375 27.8261905,5.025 27.3833333,4.6125 C26.9404762,4.2 26.2392857,4.2 25.8333333,4.65 L16.275,14.7 C15.8690476,15.1125 15.1678571,15.1125 14.7619048,14.7 L5.24047619,4.275 C4.83452381,3.825 4.13333333,3.7875 3.69047619,4.2 C3.24761905,4.6125 3.21071429,5.325 3.61666667,5.775 L9.22619048,11.8875 L2.91547619,18.3375 C2.47261905,18.7875 2.47261905,19.5 2.91547619,19.9125 C3.1,20.1375 3.3952381,20.25 3.69047619,20.25 Z"
                    id="Shape"></path>
              </g>
            </g>
          </g>
        </g>
      </g>
    </g>
  </g>
</svg>