<svg id="Layer_1" data-name="Layer 1" xmlns="http://www.w3.org/2000/svg" viewBox="0 0 65 68">
  <defs>
    <style>.cls-1{fill:#ffffff;}.cls-2{fill:#3B5998;}</style>
  </defs>
  <title>F blue</title>
  <rect class="cls-1" width="65" height="68" rx="2" ry="2" />
  <path class="cls-2" d="M36.65,46.12c0-3.38,0-6.76,0-10.14,0-.47.12-.62.6-.62,2.28,0,4.56,0,6.84,0,.54,0,.7-.23.72-.7.08-2.13.17-4.27.24-6.4,0-.8,0-.81-.79-.81-2.28,0-4.56,0-6.84,0-.59,0-.81-.12-.78-.76.05-1.16,0-2.32,0-3.48,0-.9,0-1.79.12-2.69a1.9,1.9,0,0,1,1.66-1.87,22.78,22.78,0,0,1,3.09-.21c.92,0,1.84,0,2.76,0,.3,0,.63,0,.64-.45,0-2.16.09-4.31.11-6.47a.63.63,0,0,0-.4-.44,8.8,8.8,0,0,0-1.3-.14,25.76,25.76,0,0,0-7,.14,9.59,9.59,0,0,0-6.37,4,10.51,10.51,0,0,0-1.67,6.14c0,1.78,0,3.56,0,5.34,0,.84,0,.84-.81.84-1.4,0-2.8,0-4.2,0-.46,0-.69.13-.69.65q0,3.33,0,6.66c0,.49.2.61.65.6,1.42,0,2.84,0,4.26,0,.79,0,.79,0,.8.8q0,6.06,0,12.12c0,2.62,0,5.24,0,7.86,0,.8,0,.82.8.82,2.26,0,4.52,0,6.78,0,.61,0,.78-.19.78-.79C36.64,52.84,36.65,49.48,36.65,46.12Z" />
  <path class="cls-2" d="M36.65,46.12c0,3.36,0,6.72,0,10.08,0,.6-.16.8-.78.79-2.26,0-4.52,0-6.78,0-.77,0-.79,0-.8-.82,0-2.62,0-5.24,0-7.86q0-6.06,0-12.12c0-.8,0-.8-.8-.8-1.42,0-2.84,0-4.26,0-.45,0-.65-.11-.65-.6q0-3.33,0-6.66c0-.52.23-.65.69-.65,1.4,0,2.8,0,4.2,0,.81,0,.81,0,.81-.84,0-1.78,0-3.56,0-5.34A10.51,10.51,0,0,1,30,15.15a9.59,9.59,0,0,1,6.37-4,25.76,25.76,0,0,1,7-.14,8.8,8.8,0,0,1,1.3.14.63.63,0,0,1,.4.44c0,2.16-.06,4.32-.11,6.47,0,.44-.34.45-.64.45-.92,0-1.84-.05-2.76,0a22.78,22.78,0,0,0-3.09.21,1.9,1.9,0,0,0-1.66,1.87c-.08.89-.11,1.79-.12,2.69,0,1.16,0,2.32,0,3.48,0,.63.2.76.78.76,2.28,0,4.56,0,6.84,0,.79,0,.81,0,.79.81-.07,2.13-.16,4.27-.24,6.4,0,.47-.18.7-.72.7-2.28,0-4.56,0-6.84,0-.49,0-.61.15-.6.62C36.66,39.36,36.65,42.74,36.65,46.12Z" />
</svg>