<?xml version="1.0" encoding="UTF-8"?>
<svg width="318px" height="171px" viewBox="0 0 318 171" version="1.1" xmlns="http://www.w3.org/2000/svg" xmlns:xlink="http://www.w3.org/1999/xlink">
    <desc></desc>
    <defs>
        <polygon id="path-1" points="0 0.353690909 42.9844045 0.353690909 42.9844045 55.8458727 0 55.8458727"></polygon>
    </defs>
    <g id="Login" stroke="none" stroke-width="1" fill="none" fill-rule="evenodd">
        <g id="Desktop-Login-Design" transform="translate(-241.000000, -175.000000)">
            <g id="vertical-logo-white" transform="translate(241.000000, 175.000000)">
                <g id="Group" transform="translate(104.000000, 0.000000)">
                    <path d="M56.7118759,29 C67.2948715,29 71,19.7456566 71,14.6886137 C71,9.63027887 67.5070651,0 56.5530484,0 C45.5990317,0 42,9.57666607 42,14.5 C42,19.422688 45.5990317,29 56.7118759,29" id="Fill-1" fill="#00C7B5"></path>
                    <path d="M56.2884464,84 C45.704412,84 42,93.2536974 42,98.3113863 C42,103.369075 45.4928584,113 56.4472704,113 C67.4004118,113 71,103.422688 71,98.4993541 C71,93.5766661 67.4004118,84 56.2884464,84" id="Fill-3" fill="#900481"></path>
                    <path d="M14.6889324,42 C9.63071029,42 0,45.4922231 0,56.4466351 C0,67.4010471 9.57709869,71 14.500323,71 C19.4241932,71 29,67.4010471 29,56.2878111 C29,45.704412 19.7471546,42 14.6889324,42" id="Fill-5" fill="#00C8D8"></path>
                    <path d="M59.0914672,57 C59.0914672,57.1096265 59.0869532,57.2128044 59.0869532,57.3224309 C59.0869532,58.3039104 59.1050093,59.2408946 59.1378972,60.1385421 C58.2408946,60.1050093 57.3045553,60.087598 56.3230757,60.087598 C56.2115147,60.087598 56.1096265,60.0908223 56.0006449,60.0921121 C55.8903735,60.0908223 55.7878405,60.087598 55.678214,60.087598 C54.6960896,60.087598 53.7584606,60.1050093 52.860813,60.1385421 C52.8943459,59.2415394 52.9117571,58.3039104 52.9117571,57.3224309 C52.9117571,57.2121595 52.9085328,57.1096265 52.9085328,57 C52.9085328,56.8910184 52.9117571,56.7884853 52.9117571,56.6775691 C52.9117571,55.6960896 52.8943459,54.7591054 52.860813,53.8621028 C53.7584606,53.8949907 54.6954447,53.9130468 55.6775691,53.9130468 C55.7884853,53.9130468 55.8903735,53.9091777 56,53.9085328 C56.1089816,53.9091777 56.2115147,53.9130468 56.321786,53.9130468 C57.3039104,53.9130468 58.2408946,53.8949907 59.1378972,53.8621028 C59.1050093,54.7591054 59.0869532,55.6960896 59.0869532,56.6775691 C59.0869532,56.7884853 59.0914672,56.8910184 59.0914672,57 M77.3475031,51.63604 C79.0531624,50.5649247 80.5718118,49.4564073 80.9226166,47.9790291 C80.9677569,47.7571967 80.995486,47.5250464 81,47.279999 C80.9593737,44.859188 78.0458884,41.0132326 74.8228694,38.1790652 C71.9893469,34.9554014 68.1421017,32.0412712 65.7212908,32 C65.4749536,32.0038692 65.2434482,32.0322431 65.0216158,32.0780283 C63.5448824,32.4288331 62.436365,33.9468376 61.3652497,35.6531418 C59.9755726,38.2616075 58.905747,41.2982615 56.321786,41.2369996 C56.2134492,41.2344201 55.7878405,41.2344201 55.6775691,41.2369996 C53.094253,41.2982615 52.0250722,38.2616075 50.6353952,35.6531418 C49.563635,33.9468376 48.4557625,32.4288331 46.9790291,32.0780283 C46.7565518,32.0322431 46.5250464,32.0038692 46.279999,32 C43.8578983,32.0412712 40.011298,34.9554014 37.1771306,38.1790652 C33.9547565,41.0125877 31.0406263,44.8578983 31,47.279999 C31.004514,47.5250464 31.0315982,47.7571967 31.0773834,47.9790291 C31.4288331,49.4551176 32.9468376,50.5649247 34.6531418,51.6347503 C37.2609626,53.0244274 40.2976166,54.0948979 40.2363547,56.6775691 C40.2331304,56.7878405 40.2331304,57.2134492 40.2363547,57.3224309 C40.2976166,59.9063919 37.2609626,60.9755726 34.6531418,62.3652497 C32.9468376,63.436365 31.4288331,64.5455272 31.0773834,66.0222606 C31.0315982,66.2434482 31.004514,66.4755984 31,66.7206459 C31.0406263,69.1427466 33.9560462,72.9893469 37.1797101,75.8241591 C40.0125877,79.0471781 43.8578983,81.9600186 46.2787092,82 C46.5244016,81.9961308 46.7571967,81.9684018 46.9790291,81.9226166 C48.4557625,81.5711669 49.5649247,80.0531624 50.6347503,78.3475031 C52.0244274,75.7390374 53.0948979,72.7023834 55.678214,72.7642901 C55.7871956,72.7668696 56.2121595,72.7668696 56.3230757,72.7642901 C58.905747,72.7023834 59.9749278,75.7390374 61.3646048,78.3475031 C62.436365,80.0531624 63.5448824,81.5711669 65.0216158,81.9226166 C65.2434482,81.9684018 65.4743087,81.9961308 65.720001,82 C68.1401671,81.9600186 71.9854777,79.0471781 74.8196451,75.824804 C78.0439538,72.9906366 80.9593737,69.1433915 81,66.7206459 C80.995486,66.4755984 80.9677569,66.2434482 80.9226166,66.0222606 C80.5718118,64.5455272 79.0531624,63.436365 77.3475031,62.3658946 C74.7390374,60.9762175 71.7023834,59.9063919 71.7636453,57.3224309 C71.7662247,57.2134492 71.7662247,56.7878405 71.7636453,56.6775691 C71.7023834,54.0948979 74.7390374,53.0257171 77.3475031,51.63604" id="Fill-7" fill="#FFFFFF"></path>
                    <path d="M98.4993541,42 C93.5760201,42 84,45.5990317 84,56.7118759 C84,67.2955068 93.2530515,71 98.3113863,71 C103.369075,71 113,67.5077004 113,56.5530484 C113,45.5990317 103.422688,42 98.4993541,42" id="Fill-9" fill="#651080"></path>
                </g>
                <g id="Group-2" transform="translate(0.000000, 114.000000)">
                    <g id="Group-13" transform="translate(0.000000, 1.000000)">
                        <mask id="mask-2" fill="white">
                            <use xlink:href="#path-1"></use>
                        </mask>
                        <g id="Clip-12"></g>
                        <path d="M23.0856731,55.8458727 C18.939703,55.8458727 14.8720313,55.1395091 10.8820164,53.7267818 C6.8913597,52.3140545 3.26459851,50.1427818 -0.000192537313,47.2142364 L7.07298657,38.8123273 C9.56056866,40.8168727 12.1123299,42.4103273 14.7295537,43.5914182 C17.3461358,44.7744182 20.2098075,45.3636909 23.3186433,45.3636909 C25.8062254,45.3636909 27.736091,44.9144182 29.1101657,44.0152364 C30.4823149,43.1166909 31.1696731,41.8706909 31.1696731,40.2772364 L31.1696731,40.1232364 C31.1696731,39.3526 31.0265537,38.6723273 30.7409567,38.0805091 C30.4540761,37.4906 29.9091955,36.9376 29.1037478,36.4234182 C28.2989418,35.9105091 27.1809418,35.3963273 25.7529567,34.8821455 C24.3236881,34.3692364 22.4663448,33.8296 20.1809269,33.2638727 C17.4263597,32.5963273 14.9323597,31.8511455 12.6976433,31.0283273 C10.4629269,30.2074182 8.56707612,29.1917818 7.00880746,27.9839636 C5.44989701,26.7774182 4.24204627,25.2743273 3.38461343,23.4753273 C2.5271806,21.6776 2.09846418,19.4420545 2.09846418,16.7699636 L2.09846418,16.6159636 C2.09846418,14.1500545 2.56119552,11.9272364 3.48794179,9.94878182 C4.41468806,7.97223636 5.71431493,6.26296364 7.38810597,4.82350909 C9.06125522,3.38596364 11.0591507,2.2806 13.3830761,1.50932727 C15.7050761,0.738690909 18.2664642,0.353690909 21.0646731,0.353690909 C25.0546881,0.353690909 28.7212403,0.945509091 32.0636881,2.1266 C35.4061358,3.30832727 38.4764642,5.00423636 41.2746731,7.21305455 L35.0563597,16.1533273 C32.6194791,14.5096 30.2371507,13.2126909 27.9048821,12.2613273 C25.5732552,11.3112364 23.2409866,10.8358727 20.9093597,10.8358727 C18.5777328,10.8358727 16.8282104,11.2857818 15.6627179,12.1843273 C14.4965836,13.0841455 13.9131955,14.2016 13.9131955,15.5366909 L13.9131955,15.6906909 C13.9131955,16.5650545 14.0826284,17.3229636 14.4202104,17.9650545 C14.7577925,18.6077818 15.367494,19.1862364 16.2518821,19.6985091 C17.1349866,20.2133273 18.3428373,20.7001455 19.8760761,21.1634182 C21.4086731,21.6260545 23.3430313,22.1650545 25.6823597,22.7816909 C28.4356433,23.5020545 30.890494,24.3108727 33.0475537,25.2094182 C35.2033299,26.1092364 37.0215239,27.1885091 38.5027776,28.4466 C39.9833896,29.7066 41.1007478,31.1823273 41.8542104,32.8782364 C42.6070313,34.5735091 42.9844045,36.6041455 42.9844045,38.9676 L42.9844045,39.1216 C42.9844045,41.7936909 42.4953597,44.1692364 41.5172701,46.2507818 C40.5385388,48.3310545 39.1747328,50.0785091 37.4245687,51.4912364 C35.6731209,52.9052364 33.584091,53.9838727 31.1574791,54.7284182 C28.7295836,55.4723273 26.0398373,55.8458727 23.0856731,55.8458727" id="Fill-11" fill="#FFFFFF" mask="url(#mask-2)"></path>
                    </g>
                    <path d="M52,0 L63.7635327,0 L63.7635327,21.1307387 C64.4338541,20.2404058 65.1687154,19.3874656 65.9693948,18.5751417 C66.7687961,17.762173 67.6589369,17.042686 68.639817,16.4128126 C69.6187802,15.7829392 70.7025409,15.2858742 71.8898212,14.9183944 C73.0764626,14.5509145 74.4177443,14.3665298 75.9143054,14.3665298 C80.4033498,14.3665298 83.8725343,15.7468359 86.3237762,18.5048692 C88.7737401,21.2648366 90,25.064063 90,29.9057718 L90,57 L78.2364673,57 L78.2364673,33.7108004 C78.2364673,30.9069933 77.6172667,28.7897934 76.3788656,27.3624241 C75.1404645,25.9356995 73.3857434,25.2200808 71.1159803,25.2200808 C68.8449392,25.2200808 67.0531555,25.9356995 65.7374342,27.3624241 C64.4217129,28.7897934 63.7635327,30.9069933 63.7635327,33.7108004 L63.7635327,57 L52,57 L52,0 Z" id="Fill-14" fill="#FFFFFF"></path>
                    <path d="M121.577513,46.9050339 C123.284728,46.9050339 124.797198,46.6104436 126.116206,46.018718 C127.435213,45.4295375 128.560117,44.6195733 129.491558,43.5920067 C130.422359,42.5650765 131.13279,41.3701725 131.625416,40.0085674 C132.11612,38.6475985 132.362113,37.1956438 132.362113,35.6539759 L132.362113,35.5 C132.362113,33.9589684 132.102668,32.5082862 131.586339,31.1460448 C131.06873,29.7857122 130.31858,28.5780829 129.336532,27.5244296 C128.353202,26.4720488 127.189221,25.636634 125.84523,25.0200941 C124.499317,24.4035542 123.025283,24.0949661 121.422487,24.0949661 C119.715272,24.0949661 118.202161,24.3914652 116.883794,24.981282 C115.564787,25.5730076 114.439242,26.3816993 113.508442,27.4086295 C112.577641,28.4374686 111.865928,29.6317363 111.375224,30.9920689 C110.882598,32.3543103 110.637887,33.8049925 110.637887,35.3460241 L110.637887,35.5 C110.637887,37.0416679 110.896051,38.4936226 111.413661,39.8539552 C111.929989,41.2161966 112.680779,42.4238259 113.663468,43.4762067 C114.645517,44.52986 115.797327,45.3640022 117.116334,45.9805422 C118.435342,46.5970821 119.921547,46.9050339 121.577513,46.9050339 M121.422487,57 C118.214332,57 115.24064,56.4477228 112.500128,55.3438046 C109.757694,54.2392501 107.391296,52.723669 105.400934,50.7970613 C103.40929,48.8704537 101.843649,46.6104436 100.706574,44.0157586 C99.5682174,41.4223462 99,38.6342369 99,35.6539759 L99,35.5 C99,32.5216478 99.5682174,29.7341748 100.706574,27.1394898 C101.843649,24.5454411 103.422102,22.2720695 105.43937,20.319375 C107.456638,18.3673167 109.835208,16.8262851 112.577641,15.6956438 C115.318153,14.566275 118.318751,14 121.577513,14 C124.783746,14 127.757438,14.5529135 130.499872,15.657468 C133.241024,16.7626587 135.607422,18.2776035 137.599066,20.2035749 C139.590069,22.1301826 141.155069,24.3914652 142.293426,26.9848776 C143.430501,29.5801989 144,32.3670356 144,35.3460241 L144,35.5 C144,38.480261 143.430501,41.2683703 142.293426,43.8617827 C141.155069,46.4564677 139.577898,48.729203 137.56063,50.6818975 C135.543362,52.6345921 133.163511,54.1756237 130.422359,55.3049925 C127.679925,56.4343612 124.681249,57 121.422487,57" id="Fill-16" fill="#FFFFFF"></path>
                    <path d="M172.577192,46.9050339 C174.284382,46.9050339 175.796831,46.6104436 177.11646,46.018718 C178.435449,45.4295375 179.559696,44.6195733 180.491124,43.5920067 C181.422552,42.5650765 182.132333,41.3701725 182.624952,40.0085674 C183.115649,38.6475985 183.361638,37.1956438 183.361638,35.6539759 L183.361638,35.5 C183.361638,33.9589684 183.102837,32.5082862 182.585876,31.1460448 C182.068273,29.7857122 181.318135,28.5780829 180.3361,27.5244296 C179.352784,26.4720488 178.18946,25.636634 176.844847,25.0200941 C175.499594,24.4035542 174.024941,24.0949661 172.422167,24.0949661 C170.715618,24.0949661 169.201888,24.3914652 167.88354,24.981282 C166.564551,25.5730076 165.439022,26.3816993 164.508235,27.4086295 C163.577448,28.4374686 162.865745,29.6317363 162.375048,30.9920689 C161.88307,32.3543103 161.637721,33.8049925 161.637721,35.3460241 L161.637721,35.5 C161.637721,37.0416679 161.895882,38.4936226 162.414124,39.8539552 C162.929805,41.2161966 163.680584,42.4238259 164.66326,43.4762067 C165.645935,44.52986 166.797728,45.3640022 168.116076,45.9805422 C169.435705,46.5970821 170.921249,46.9050339 172.577192,46.9050339 M172.422167,57 C169.2147,57 166.240409,56.4477228 163.499936,55.3438046 C160.757541,54.2392501 158.391177,52.723669 156.400843,50.7970613 C154.409227,48.8704537 152.843609,46.6104436 151.70655,44.0157586 C150.568209,41.4223462 150,38.6342369 150,35.6539759 L150,35.5 C150,32.5216478 150.568209,29.7341748 151.70655,27.1394898 C152.843609,24.5454411 154.422039,22.2720695 156.439279,20.319375 C158.456518,18.3673167 160.835694,16.8262851 163.577448,15.6956438 C166.317921,14.566275 169.318476,14 172.577192,14 C175.784019,14 178.757029,14.5529135 181.500064,15.657468 C184.240537,16.7626587 186.606901,18.2776035 188.599157,20.2035749 C190.589491,22.1301826 192.154469,24.3914652 193.29281,26.9848776 C194.429869,29.5801989 195,32.3670356 195,35.3460241 L195,35.5 C195,38.480261 194.429869,41.2683703 193.29281,43.8617827 C192.154469,46.4564677 190.57732,48.729203 188.560081,50.6818975 C186.542842,52.6345921 184.163025,54.1756237 181.422552,55.3049925 C178.679517,56.4343612 175.680883,57 172.422167,57" id="Fill-18" fill="#FFFFFF"></path>
                    <path d="M218.368596,57 C216.52588,57 214.855246,56.8055811 213.356043,56.417385 C211.855536,56.0285472 210.564917,55.3426271 209.487446,54.3576998 C208.40802,53.3746973 207.565859,52.092046 206.960963,50.5110291 C206.355415,48.9312954 206.052967,46.9242252 206.052967,44.4885351 L206.052967,24.7489225 L201,24.7489225 L201,14.6468402 L206.052967,14.6468402 L206.052967,4 L218.053112,4 L218.053112,14.6468402 L228,14.6468402 L228,24.7489225 L218.053112,24.7489225 L218.053112,42.6085109 C218.053112,45.3130508 219.341775,46.6643584 221.921056,46.6643584 C224.025808,46.6643584 225.999541,46.1471913 227.842258,45.1102906 L227.842258,54.5912591 C226.579016,55.3169613 225.184105,55.9002179 223.658177,56.3397458 C222.130293,56.7792736 220.367751,57 218.368596,57" id="Fill-20" fill="#FFFFFF"></path>
                    <polygon id="Fill-22" fill="#FFFFFF" points="235 48.6157863 256.399458 24.6374139 235.695264 24.6374139 235.695264 15 271 15 271 23.3842137 249.523999 47.3619391 271 47.3619391 271 57 235 57"></polygon>
                    <path d="M294.085458,57 C289.597128,57 286.126085,55.6414529 283.676162,52.9230886 C281.224961,50.2059944 280,46.461257 280,41.6920518 L280,15 L291.763335,15 L291.763335,37.9435035 C291.763335,40.7069623 292.383164,42.7921002 293.620905,44.1982821 C294.859286,45.6050992 296.612699,46.307555 298.883702,46.307555 C301.154066,46.307555 302.946459,45.6050992 304.262797,44.1982821 C305.577857,42.7921002 306.236026,40.7069623 306.236026,37.9435035 L306.236026,15 L318,15 L318,56.2308553 L306.236026,56.2308553 L306.236026,50.3368316 C305.565077,51.215219 304.829589,52.0542282 304.030201,52.8551294 C303.230174,53.6547605 302.340048,54.365473 301.360463,54.9853617 C300.379599,55.6058856 299.295857,56.0962074 298.109874,56.4575974 C296.921975,56.8189874 295.581355,57 294.085458,57" id="Fill-24" fill="#FFFFFF"></path>
                </g>
            </g>
        </g>
    </g>
</svg>