<svg width="18px" height="12px" viewBox="0 0 18 12" version="1.1" xmlns="http://www.w3.org/2000/svg" xmlns:xlink="http://www.w3.org/1999/xlink">
    <!-- Generator: Sketch 50.2 (55047) - http://www.bohemiancoding.com/sketch -->
    <desc>Created with Sketch.</desc>
    <defs></defs>
    <g id="Admin-Panel" stroke="none" stroke-width="1" fill="none" fill-rule="evenodd">
        <g id="Admin-Reports" transform="translate(-925.000000, -589.000000)">
            <g id="Group-22" transform="translate(180.000000, 425.000000)">
                <g id="Group-20" transform="translate(0.000000, 49.000000)">
                    <g id="Group-10" transform="translate(117.000000, 104.000000)">
                        <g id="Group-4-Copy-2" transform="translate(628.000000, 0.000000)">
                            <g id="noun_User-Directory_598329" transform="translate(0.000000, 11.000000)">
                                <g id="Group">
                                    <path d="M6.111,6.54545455 C4.2496875,6.54545455 2.736,5.07763636 2.736,3.27272727 C2.736,1.46781818 4.2496875,0 6.111,0 C7.9723125,0 9.486,1.46781818 9.486,3.27272727 C9.486,5.07763636 7.97175,6.54545455 6.111,6.54545455 Z M6.111,1.09090909 C4.870125,1.09090909 3.861,2.06945455 3.861,3.27272727 C3.861,4.476 4.870125,5.45454545 6.111,5.45454545 C7.351875,5.45454545 8.361,4.476 8.361,3.27272727 C8.361,2.06945455 7.3513125,1.09090909 6.111,1.09090909 Z" id="Shape" fill-rule="nonzero"></path>
                                    <path d="M6.111,6.54545455 C4.2496875,6.54545455 2.736,5.07763636 2.736,3.27272727 C2.736,1.46781818 4.2496875,0 6.111,0 C7.9723125,0 9.486,1.46781818 9.486,3.27272727 C9.486,5.07763636 7.97175,6.54545455 6.111,6.54545455 Z M6.111,1.09090909 C4.870125,1.09090909 3.861,2.06945455 3.861,3.27272727 C3.861,4.476 4.870125,5.45454545 6.111,5.45454545 C7.351875,5.45454545 8.361,4.476 8.361,3.27272727 C8.361,2.06945455 7.3513125,1.09090909 6.111,1.09090909 Z" id="Shape" fill="#999999" fill-rule="nonzero"></path>
                                    <circle id="Oval-2" fill="#999999" cx="6" cy="3" r="3"></circle>
                                    <path d="M10.8151875,12 L1.4068125,12 C0.99,12 0.5979375,11.8221818 0.33075,11.5112727 C0.0590625,11.1949091 -0.052875,10.7803636 0.023625,10.3729091 C0.5585625,7.52345455 3.1185,5.45454545 6.111,5.45454545 C9.1029375,5.45454545 11.662875,7.52345455 12.1978125,10.374 C12.274875,10.7814545 12.1629375,11.196 11.8906875,11.5123636 C11.6235,11.8221818 11.2314375,12 10.8151875,12 Z M6.111,6.54545455 C3.6624375,6.54545455 1.56825,8.238 1.130625,10.5687273 C1.11375,10.6570909 1.137375,10.746 1.19475,10.8125455 C1.2256875,10.8490909 1.2943125,10.9090909 1.4068125,10.9090909 L10.8151875,10.9090909 C10.9215,10.9090909 10.9895625,10.8567273 11.0266875,10.8125455 C11.084625,10.746 11.10825,10.6570909 11.091375,10.5687273 C10.6531875,8.238 8.559,6.54545455 6.111,6.54545455 Z" id="Shape" fill="#999999" fill-rule="nonzero"></path>
                                    <path d="M17.4375,6.54545455 L12.375,6.54545455 C12.0639375,6.54545455 11.8125,6.30163636 11.8125,6 C11.8125,5.69890909 12.0639375,5.45454545 12.375,5.45454545 L17.4375,5.45454545 C17.7485625,5.45454545 18,5.69890909 18,6 C18,6.30163636 17.7485625,6.54545455 17.4375,6.54545455 Z" id="Shape" fill="#999999" fill-rule="nonzero"></path>
                                    <path d="M17.4375,3.81818182 L11.8125,3.81818182 C11.5014375,3.81818182 11.25,3.57381818 11.25,3.27272727 C11.25,2.97163636 11.5014375,2.72727273 11.8125,2.72727273 L17.4375,2.72727273 C17.7485625,2.72727273 18,2.97163636 18,3.27272727 C18,3.57381818 17.7485625,3.81818182 17.4375,3.81818182 Z" id="Shape" fill="#999999" fill-rule="nonzero"></path>
                                    <path d="M17.4375,9.27272727 L14.0625,9.27272727 C13.7514375,9.27272727 13.5,9.02890909 13.5,8.72727273 C13.5,8.42563636 13.7514375,8.18181818 14.0625,8.18181818 L17.4375,8.18181818 C17.7485625,8.18181818 18,8.42563636 18,8.72727273 C18,9.02890909 17.7485625,9.27272727 17.4375,9.27272727 Z" id="Shape" fill="#999999" fill-rule="nonzero"></path>
                                    <polygon id="Path-2" fill="#999999" points="11.0722101 11.1387878 0.805071689 11.1387878 1.13527295 9.41155629 2.16108243 7.86239881 4.26147254 6.45718625 7.07125168 6.23830814 9.73148743 7.34949407 11.2216458 9.41155629"></polygon>
                                </g>
                            </g>
                        </g>
                    </g>
                </g>
            </g>
        </g>
    </g>
</svg>