<?xml version="1.0" encoding="UTF-8"?>
<svg width="13px" height="12px" viewBox="0 0 13 12" version="1.1" xmlns="http://www.w3.org/2000/svg" xmlns:xlink="http://www.w3.org/1999/xlink">
    <!-- Generator: sketchtool 50.2 (55047) - http://www.bohemiancoding.com/sketch -->
    <title>3A842949-B448-41E0-953A-E6AED0744F0F</title>
    <desc>Created with sketchtool.</desc>
    <defs></defs>
    <g id="Dashboard" stroke="none" stroke-width="1" fill="none" fill-rule="evenodd">
        <g transform="translate(-852.000000, -621.000000)" fill="#999999" fill-rule="nonzero" id="Group-14">
            <g transform="translate(69.000000, 122.000000)">
                <g id="Group-11-Copy" transform="translate(639.000000, 361.000000)">
                    <g id="time" transform="translate(144.666667, 138.000000)">
                        <path d="M6,0.12 C2.75256567,0.12 0.12,2.75256567 0.12,6 C0.12,9.24743433 2.75256567,11.88 6,11.88 C9.24743433,11.88 11.88,9.24743433 11.88,6 C11.8762213,2.75413213 9.24586787,0.123778663 6,0.12 Z M6,10.5085714 C3.50998476,10.5085714 1.49142857,8.49001524 1.49142857,6 C1.49142857,3.50998476 3.50998476,1.49142857 6,1.49142857 C8.49001524,1.49142857 10.5085714,3.50998476 10.5085714,6 C10.5057373,8.48884036 8.48884036,10.5057373 6,10.5085714 Z" id="Shape"></path>
                        <polygon id="Shape" points="6.62914286 3.08571429 5.25771429 3.08571429 5.25771429 6.85714286 8.85771429 6.85714286 8.85771429 5.48571429 6.62914286 5.48571429"></polygon>
                    </g>
                </g>
            </g>
        </g>
    </g>
</svg>